<svg xmlns="http://www.w3.org/2000/svg" width="12" height="13" viewBox="0 0 12 13">
    <path fill-rule="nonzero" d="M12 0s-1.493-.005-2.212.659c-.781.842-.556 1.757-.375 1.938.18.12 1.148.41 1.987-.433C12 1.501 12 0 12 0zM.9.056L.056.903 11.1 11.987l.844-.847L8.23 7.414c.79-.327 1.182-1.035 1.182-1.035s-.645-.602-2.026-.602a2.07 2.07 0 0 0-.675.113l-.58-.583c.067-.198.112-.428.112-.678 0-1.385-.6-2.032-.6-2.032s-.706.393-1.031 1.185L.9.056zM8.456.66c-.66.06-1.676.72-1.856 1.562-.3 1.084.363 1.82.544 1.881.18.061.844-.362 1.144-1.204.419-1.204.23-2.24.168-2.24zm2.232 2.804a4.79 4.79 0 0 0-1.576.263c-.9.362-1.26.967-1.2 1.148.061.181.795.847 1.876.546.9-.24 1.495-1.2 1.556-1.863 0-.031-.251-.094-.656-.094zm-7.876 1.9c-.3.301-.6.842-.6 1.506 0 1.324.544 1.618.844 1.618.3 0 .956-.598.956-1.562v-.358l-1.2-1.204zM1.2 7.113S0 7.765 0 9.09c0 1.324.544 1.637.844 1.637.3 0 .956-.616.956-1.58 0-1.386-.6-2.033-.6-2.033zm3.9.903c-.96 0-1.556.598-1.556.96s.293.847 1.612.847c.661 0 1.14-.301 1.5-.602l-1.2-1.205H5.1zm-2.156 2.221c-.961 0-1.557.659-1.557.96 0 .3.293.846 1.613.846s1.988-1.204 1.988-1.204-.664-.602-2.044-.602z"/>
</svg>
