<svg xmlns="http://www.w3.org/2000/svg" width="12" height="10" viewBox="0 0 12 10">
    <path fill-rule="nonzero" d="M11.254.005c-1.83.229-3.177 1.293-4.367 2.576.226.26.44.522.653.782.074.087.14.175.206.255.087-.094.167-.18.254-.268v.569c.48.568.913 1.056 1.333 1.45V2.174c.42-.287.86-.521 1.34-.668l-.006 4.842c.411.194.842.3 1.326.3L12 .674a.67.67 0 0 0-.745-.669zM.75.006A.671.671 0 0 0 0 .674v5.973c.484 0 .915-.107 1.327-.308l.006-4.833c.477.152.918.382 1.334.671V5.37c.42-.395.853-.883 1.333-1.451v-.573c.385.403.757.846 1.132 1.296-.373.454-.746.889-1.132 1.29-.42.447-.86.849-1.333 1.176a4.801 4.801 0 0 1-1.334.67 4.191 4.191 0 0 1-.743.168.672.672 0 0 0-.59.662c0 .402.354.717.751.667C3.04 8.985 4.577 7.39 6 5.691c-.173-.207-.34-.414-.513-.622 1.572 1.912 3.194 3.881 5.762 4.206A.673.673 0 0 0 12 8.607a.661.661 0 0 0-.573-.659c-2.061-.266-3.45-1.954-4.913-3.733C4.942 2.302 3.32.331.75.006z"/>
</svg>
