<svg xmlns="http://www.w3.org/2000/svg" width="12" height="13" viewBox="0 0 12 13">
    <path fill-rule="nonzero" d="M6 0C2.691 0 0 2.699 0 6.017c0 3.318 2.691 6.017 6 6.017s6-2.7 6-6.017C12 2.699 9.309 0 6 0zm.815 2.861c.943.01 1.794.28 2.185.507-.817 1.104-.478 3.013-1.386 4.292-.85 1.197-2.43 1.267-2.43 1.267h-.04a6.98 6.98 0 0 0 .098 1.43.255.255 0 0 1-.204.303c-.016.003-.033.008-.049.008a.257.257 0 0 1-.253-.212.267.267 0 0 0-.008-.057.264.264 0 0 0-.008-.041l-.008-.041c-.013-.082-.03-.167-.04-.253-.012-.09-.017-.184-.025-.278-.004-.052-.005-.104-.008-.156-.007-.098-.014-.193-.017-.294a9.11 9.11 0 0 1 0-.409c.023-.889.184-1.863.546-2.559.718-1.376 1.72-1.864 1.72-1.864a.261.261 0 1 0-.236-.466s-1.16.58-1.948 2.093c-.394.756-.569 1.702-.603 2.592-.58-.596-2.115-2.54-.025-4.79.764-.824 1.797-1.08 2.74-1.072z"/>
</svg>
