<svg xmlns="http://www.w3.org/2000/svg" width="12" height="11" viewBox="0 0 12 11">
    <path fill-rule="nonzero" d="M3 0v1.29a2.37 2.37 0 0 0-.61.256L1.478.632l-.849.851.911.914c-.112.19-.197.394-.254.612H0v1.204h1.284c.057.22.148.422.26.613-.734.366-1.204.645-1.262.682L0 5.684V9.92C1.357 8.443 5.63 4.382 12 3.68V2.407h-.6c-1.993 0-3.843.32-5.446.751a2.38 2.38 0 0 0-.295-.761l.91-.914-.848-.85-.91.913A2.37 2.37 0 0 0 4.2 1.29V0H3zm.6 2.407c.633 0 1.136.477 1.19 1.097-.822.267-1.534.55-2.158.82a1.192 1.192 0 0 1-.232-.713c0-.672.53-1.204 1.2-1.204zM12 4.892c-5.995.717-10.07 4.7-11.202 5.94h3.734C5.3 9.991 8.347 6.887 12 6.125V4.892zm0 2.459c-2.413.588-4.581 2.351-5.775 3.481H10.8c.663 0 1.2-.538 1.2-1.203V7.35z"/>
</svg>
