<svg xmlns="http://www.w3.org/2000/svg" width="12" height="14" viewBox="0 0 12 14">
    <path fill-rule="nonzero" d="M9.349.237C9.137.04 9.053-.046 8.713.024 8.473.074 2.845 1.28.617 4.63.073 5.545 0 6.379 0 7.076c0 1.68 1.05 3.263 2.579 3.941-.46.37-1.142.863-1.619 1.112a.663.663 0 0 0-.307.835.668.668 0 0 0 .927.35c3.165-1.652 6.107-6.107 6.393-9.448.014-.171.248-.295.296-.005.236 1.412-.548 5.429-2.774 8.084.794.755 1.676.769 2.045.773 2.257-.09 4.51-1.91 4.46-5.776-.025-1.808-.734-4.52-2.651-6.705z"/>
</svg>
