<svg xmlns="http://www.w3.org/2000/svg" viewBox="0 0 50 50" enable-background="new 0 0 50 50" width="50" height="50">
    <path style="text-indent:0;text-align:start;line-height:normal;text-transform:none;block-progression:tb;-inkscape-font-specification:Bitstream Vera Sans" d="M 10.96875 3 A 1.0001 1.0001 0 0 0 10.375 3.28125 C 10.375 3.28125 3 10.135536 3 18.4375 C 3 22.86445 4.7277303 27.211134 9.125 29.9375 C 9.6017907 31.904703 9.946736 33.678197 9.6875 35.25 A 1.0001 1.0001 0 1 0 11.65625 35.5625 C 12.201075 32.259111 10.87771 29.108138 10.125 25.625 C 9.37229 22.141862 9.0765471 18.344861 11.25 13.5625 A 1.0001 1.0001 0 0 0 10.34375 12.125 A 1.0001 1.0001 0 0 0 9.4375 12.75 C 7.0639529 17.972639 7.39271 22.353388 8.1875 26.03125 C 8.2539102 26.338561 8.3363181 26.608359 8.40625 26.90625 C 5.9434682 24.648219 5 21.680843 5 18.4375 C 5 12.104545 9.8937079 6.7802553 11.03125 5.59375 C 12.03125 6.7425089 15.155104 10.45179 15.84375 14.625 C 16.31264 17.467159 15.548954 19.882306 14.5625 21.6875 C 14.069273 22.590097 13.522478 23.33408 13.0625 23.875 C 12.602522 24.41592 12.176144 24.805392 12.125 24.84375 A 1.0001 1.0001 0 1 0 13.3125 26.4375 C 13.623356 26.204358 14.056572 25.819205 14.59375 25.1875 C 15.130928 24.555795 15.742602 23.699153 16.3125 22.65625 C 17.452296 20.570444 18.36861 17.683341 17.8125 14.3125 C 16.849694 8.4778745 11.78125 3.3125 11.78125 3.3125 A 1.0001 1.0001 0 0 0 10.96875 3 z M 28.90625 20.0625 C 28.219092 20.062886 27.523209 20.110371 26.8125 20.1875 C 19.245771 21.008529 15.716497 25.229 14.34375 29.15625 C 12.971003 33.0835 13.5625 36.78125 13.5625 36.78125 A 1.0001 1.0001 0 0 0 13.5625 36.8125 C 10.495928 40.019594 9.125 42.84375 9.125 42.84375 A 1.0001 1.0001 0 1 0 10.90625 43.71875 C 10.90625 43.71875 14.459027 36.399168 23.125 32.3125 C 29.036891 29.524228 36.6875 30.375 36.6875 30.375 A 1.0001 1.0001 0 1 0 36.9375 28.40625 C 36.9375 28.40625 34.923204 28.147395 32.09375 28.28125 C 29.264296 28.415105 25.601305 28.934136 22.28125 30.5 C 19.54049 31.792478 17.272336 33.384104 15.4375 35 C 15.408329 33.734135 15.508435 31.84462 16.21875 29.8125 C 17.404753 26.4195 20.100979 22.939471 27.03125 22.1875 C 36.236988 21.188454 43.360608 27.708977 44.71875 29.03125 C 43.745295 30.747436 38.256856 39.721949 28.0625 40.84375 C 22.367406 41.46975 17.375 38.8125 17.375 38.8125 A 1.0001 1.0001 0 1 0 16.4375 40.5625 C 16.4375 40.5625 21.858344 43.5185 28.28125 42.8125 C 40.732137 41.442387 46.875 29.28125 46.875 29.28125 A 1.0001 1.0001 0 0 0 46.71875 28.15625 C 46.71875 28.15625 39.213619 20.056713 28.90625 20.0625 z" color="#000" overflow="visible" enable-background="accumulate" font-family="Bitstream Vera Sans"/>
</svg>