<svg xmlns="http://www.w3.org/2000/svg" viewBox="0 0 50 50" width="50" height="50">
    <path style="text-indent:0;text-align:start;line-height:normal;text-transform:none;block-progression:tb;-inkscape-font-specification:Sans" d="M 19.8125 0 A 1.0001 1.0001 0 0 0 19 1 L 19 2 A 1.0001 1.0001 0 0 0 19.15625 2.5625 L 21 5.3125 L 21 6 A 1.0001 1.0001 0 0 0 20 7 L 20 9 L 19 9 A 1.0001 1.0001 0 0 0 18.90625 9 A 1.0001 1.0001 0 0 0 18 10 L 18 16 L 15 16 A 1.0001 1.0001 0 0 0 14.90625 16 A 1.0001 1.0001 0 0 0 14 17 L 14 38 C 14 44.373222 18.375 47.78125 18.375 47.78125 A 1.0001 1.0001 0 0 0 19 48 L 31 48 A 1.0001 1.0001 0 0 0 31.625 47.78125 C 31.625 47.78125 36 44.373222 36 38 L 36 17 A 1.0001 1.0001 0 0 0 35 16 L 32 16 L 32 10 A 1.0001 1.0001 0 0 0 31 9 L 30 9 L 30 7 A 1.0001 1.0001 0 0 0 29 6 L 29 3 A 1.0001 1.0001 0 0 0 28.40625 2.09375 C 25.025988 0.59381295 20.125 0 20.125 0 A 1.0001 1.0001 0 0 0 19.8125 0 z M 21.375 2.25 C 22.792731 2.4824909 24.93072 2.9150684 27 3.71875 L 27 7 A 1.0001 1.0001 0 0 0 28 8 L 28 9 L 22 9 L 22 8 A 1.0001 1.0001 0 0 0 23 7 L 23 5 A 1.0001 1.0001 0 0 0 22.84375 4.4375 L 21.375 2.25 z M 20 11 L 20.84375 11 L 29.09375 11 L 30 11 L 30 16 L 20 16 L 20 11 z M 16 18 L 34 18 L 34 38 C 34 43.18567 30.902544 45.728122 30.5625 46 L 19.4375 46 C 19.097456 45.728122 16 43.18567 16 38 L 16 18 z" color="#000" overflow="visible" font-family="Sans"/>
</svg>