<svg xmlns="http://www.w3.org/2000/svg" width="50" height="50" viewBox="0 0 50 50">
    <path style="text-indent:0;text-align:start;line-height:normal;text-transform:none;block-progression:tb;-inkscape-font-specification:Bitstream Vera Sans" d="M 48 1 C 48 1 46.775045 0.9923433 45.3125 1.25 C 43.849955 1.5076567 42.084806 1.9776944 40.84375 3.21875 C 40.719026 3.3434222 40.610349 3.4658892 40.5 3.59375 C 40.045693 2.6861028 39.53125 2.09375 39.53125 2.09375 A 1.0001 1.0001 0 0 0 38.59375 1.75 C 37.43316 1.9291661 36.362491 2.6532475 35.40625 3.625 C 34.522391 4.5231968 33.787993 5.6803849 33.4375 6.96875 C 32.878932 6.5101115 32.375 6.21875 32.375 6.21875 A 1.0001 1.0001 0 0 0 31.71875 6.09375 A 1.0001 1.0001 0 0 0 31.375 6.1875 C 30.367248 6.7367321 29.58266 7.7477051 28.96875 8.96875 C 28.598414 9.705336 28.3166 10.52139 28.1875 11.375 C 27.869958 11.147426 27.625 10.96875 27.625 10.96875 A 1.0001 1.0001 0 0 0 26.9375 10.84375 A 1.0001 1.0001 0 0 0 26.625 10.96875 C 25.617248 11.517982 24.80141 12.528955 24.1875 13.75 C 23.826592 14.467833 23.571243 15.263632 23.4375 16.09375 C 23.127483 15.872378 22.875 15.71875 22.875 15.71875 A 1.0001 1.0001 0 0 0 22.1875 15.59375 A 1.0001 1.0001 0 0 0 21.875 15.71875 C 20.866803 16.267515 20.051437 17.279041 19.4375 18.5 C 19.067147 19.236534 18.807571 20.052624 18.6875 20.90625 C 18.369958 20.678676 18.125 20.5 18.125 20.5 A 1.0001 1.0001 0 0 0 17.4375 20.34375 A 1.0001 1.0001 0 0 0 17.125 20.46875 C 16.117248 21.017982 15.30141 22.028955 14.6875 23.25 C 14.321616 23.97773 14.037607 24.782488 13.90625 25.625 C 13.60609 25.411682 13.375 25.25 13.375 25.25 A 1.0001 1.0001 0 0 0 12.78125 25.09375 A 1.0001 1.0001 0 0 0 12.375 25.21875 C 11.367248 25.767982 10.55141 26.778955 9.9375 28 C 9.3235905 29.221045 8.9306371 30.667893 9.125 32.125 C 9.3457432 33.786264 10.042291 35.020411 10.875 35.8125 C 11.225038 36.145463 11.597466 36.411309 11.96875 36.59375 L 2.28125 46.28125 A 1.016466 1.016466 0 1 0 3.71875 47.71875 L 13.40625 38.03125 C 13.588681 38.402541 13.854508 38.774999 14.1875 39.125 C 14.979656 39.957621 16.213848 40.654272 17.875 40.875 C 19.331856 41.068714 20.779001 40.676245 22 40.0625 C 23.220999 39.448755 24.231971 38.632839 24.78125 37.625 A 1.0001 1.0001 0 0 0 24.75 36.625 C 24.75 36.625 24.588318 36.39391 24.375 36.09375 C 25.21754 35.96241 26.022297 35.678286 26.75 35.3125 C 27.970999 34.698755 28.981971 33.882839 29.53125 32.875 A 1.0001 1.0001 0 0 0 29.5 31.875 C 29.5 31.875 29.321322 31.630037 29.09375 31.3125 C 29.947431 31.183418 30.763579 30.901504 31.5 30.53125 C 32.720772 29.917477 33.732057 29.13268 34.28125 28.125 A 1.0001 1.0001 0 0 0 34.28125 27.125 C 34.28125 27.125 34.127622 26.872517 33.90625 26.5625 C 34.736384 26.428787 35.532245 26.173327 36.25 25.8125 C 37.470913 25.198727 38.482057 24.38268 39.03125 23.375 A 1.0001 1.0001 0 0 0 39.03125 22.375 C 39.03125 22.375 38.830558 22.130042 38.59375 21.8125 C 39.456402 21.683421 40.294744 21.401504 41.03125 21.03125 C 42.252163 20.417477 43.263307 19.63268 43.8125 18.625 A 1.0001 1.0001 0 0 0 43.78125 17.625 C 43.78125 17.625 43.489888 17.121068 43.03125 16.5625 C 44.319654 16.212001 45.476948 15.477595 46.375 14.59375 C 47.346596 13.637525 48.070201 12.566243 48.25 11.40625 A 1.0001 1.0001 0 0 0 47.90625 10.5 C 47.90625 10.5 47.31583 9.9637135 46.40625 9.5 C 46.532745 9.390675 46.657944 9.279556 46.78125 9.15625 C 48.02252 7.9156231 48.492339 6.1499365 48.75 4.6875 C 49.007661 3.2250635 49 2 49 2 A 1.0001 1.0001 0 0 0 48 1 z M 46.90625 3.09375 C 46.87944 3.5196848 46.89995 3.6386864 46.78125 4.3125 C 46.556161 5.5900635 46.06473 7.0606269 45.375 7.75 C 44.372077 8.7529229 43.330563 9.0313114 42.46875 9.0625 C 42.037844 9.0780943 41.642363 9.0080257 41.375 8.9375 C 41.268977 8.9095329 41.188245 8.8803427 41.125 8.84375 C 41.087778 8.7834856 41.055889 8.7148028 41.03125 8.625 C 40.958783 8.360874 40.924004 7.9888737 40.9375 7.5625 C 40.964492 6.7097525 41.225877 5.6486984 42.25 4.625 C 42.939944 3.9350556 44.409795 3.4438433 45.6875 3.21875 C 46.361388 3.1000311 46.480299 3.120557 46.90625 3.09375 z M 38.40625 4.0625 C 38.742002 4.5991532 39.120872 5.3016216 39.15625 5.96875 A 1.001098 1.001098 0 0 0 39.15625 6.0625 C 39.017305 6.56352 38.951559 7.0558506 38.9375 7.5 C 38.923972 7.9274714 38.970953 8.3071547 39.03125 8.65625 A 1.0080244 1.0080244 0 0 0 38.96875 8.75 C 38.619615 9.7650935 38.169323 10.450487 37.71875 10.84375 C 37.29743 11.211481 36.880039 11.327592 36.375 11.3125 C 36.34882 11.29116 36.34347 11.27874 36.3125 11.25 C 36.140741 11.090604 35.915233 10.80645 35.71875 10.46875 C 35.325784 9.7933493 35.027095 8.860525 35.28125 7.6875 C 35.479817 6.7689807 36.104741 5.7822475 36.84375 5.03125 C 37.403301 4.4626216 37.933733 4.2589572 38.40625 4.0625 z M 32 8.40625 C 32.102725 8.483481 32.10347 8.465607 32.21875 8.5625 C 32.679868 8.9500719 33.137374 9.4903539 33.25 9.8125 A 1.0080244 1.0080244 0 0 0 33.4375 10.15625 C 33.575341 10.65612 33.745752 11.116725 33.96875 11.5 C 34.009119 11.569383 34.051909 11.622147 34.09375 11.6875 A 1.00122 1.00122 0 0 0 34.15625 11.9375 C 34.356065 12.412522 34.24796 13.423214 33.8125 14.3125 C 33.39427 15.166598 32.730851 15.758882 32.34375 15.875 C 32.24383 15.8732 31.754041 15.79348 31.28125 15.34375 C 30.791709 14.878089 30.292257 14.102486 30.125 12.84375 C 30.003363 11.931857 30.27641 10.816955 30.75 9.875 C 31.117591 9.1438748 31.595586 8.7519681 32 8.40625 z M 43.875 10.84375 C 43.914863 10.832962 43.959934 10.855462 44 10.84375 A 1.0043849 1.0043849 0 0 0 44.03125 10.84375 C 44.69701 10.87866 45.400585 11.257863 45.9375 11.59375 C 45.740819 12.066538 45.537308 12.596687 44.96875 13.15625 C 44.217846 13.895275 43.23099 14.520189 42.3125 14.71875 C 41.140094 14.972859 40.206834 14.67427 39.53125 14.28125 C 39.193458 14.084743 38.909478 13.85929 38.75 13.6875 C 38.72124 13.65652 38.70885 13.65118 38.6875 13.625 C 38.67214 13.120246 38.78846 12.702625 39.15625 12.28125 C 39.254582 12.168592 39.364563 12.048575 39.5 11.9375 C 39.906311 11.604275 40.488823 11.292716 41.25 11.03125 A 1.0080244 1.0080244 0 0 0 41.375 10.96875 C 41.724106 11.029686 42.1038 11.077969 42.53125 11.0625 C 42.95554 11.047146 43.400749 10.972098 43.875 10.84375 z M 27.25 13.15625 C 27.352725 13.23348 27.35347 13.21561 27.46875 13.3125 C 27.929868 13.700072 28.387374 14.271604 28.5 14.59375 A 1.0001 1.0001 0 0 0 28.65625 14.84375 C 28.818833 15.235812 29.004889 15.591241 29.21875 15.90625 C 29.223676 15.913506 29.213801 15.930285 29.21875 15.9375 A 1.0001 1.0001 0 0 0 29.28125 16.1875 C 29.580695 17.013752 29.451547 18.138776 29.03125 19.0625 C 28.619269 19.967949 27.921855 20.557993 27.53125 20.65625 C 27.400217 20.64461 26.95202 20.52372 26.5 20.09375 C 26.201157 19.809485 25.906831 19.398418 25.6875 18.84375 A 1.0001 1.0001 0 0 0 25.625 18.65625 C 25.516843 18.343538 25.429295 18.002362 25.375 17.59375 C 25.253363 16.681857 25.52641 15.566955 26 14.625 C 26.367591 13.893875 26.845586 13.501968 27.25 13.15625 z M 37.1875 15.75 C 37.341718 15.736061 37.493377 15.741628 37.625 15.75 C 37.800497 15.761163 37.943509 15.793725 38.0625 15.84375 A 1.00122 1.00122 0 0 0 38.3125 15.90625 C 38.377853 15.94809 38.430612 15.990884 38.5 16.03125 C 38.892807 16.259762 39.360053 16.455425 39.875 16.59375 A 1.0080244 1.0080244 0 0 0 40.1875 16.75 C 40.509646 16.862626 41.049928 17.320132 41.4375 17.78125 C 41.53439 17.89653 41.51652 17.897275 41.59375 18 C 41.248109 18.404348 40.856033 18.882498 40.125 19.25 C 39.183163 19.723477 38.069043 19.996321 37.15625 19.875 C 35.897402 19.707728 35.121844 19.208129 34.65625 18.71875 C 34.206586 18.246116 34.126682 17.757051 34.125 17.65625 C 34.241496 17.268116 34.833471 16.605597 35.6875 16.1875 C 36.187683 15.942632 36.724847 15.791816 37.1875 15.75 z M 22.5 17.90625 C 22.602725 17.98348 22.60347 17.96561 22.71875 18.0625 C 23.179868 18.450072 23.637374 19.021604 23.75 19.34375 A 1.0001 1.0001 0 0 0 23.84375 19.53125 C 24.02321 19.983515 24.222859 20.39725 24.46875 20.75 C 24.473734 20.75715 24.463744 20.774142 24.46875 20.78125 A 1.0001 1.0001 0 0 0 24.53125 20.875 A 1.0001 1.0001 0 0 0 24.53125 20.9375 C 24.830695 21.763752 24.701547 22.888776 24.28125 23.8125 C 23.877584 24.699673 23.207016 25.2588 22.8125 25.375 C 22.696288 25.3683 22.212344 25.28354 21.75 24.84375 C 21.260459 24.378089 20.792257 23.602486 20.625 22.34375 C 20.503363 21.431857 20.776437 20.316791 21.25 19.375 C 21.617569 18.644002 22.095791 18.251606 22.5 17.90625 z M 32.40625 20.5625 C 32.907159 20.51619 33.399374 20.569 33.8125 20.71875 A 1.0001 1.0001 0 0 0 34.0625 20.78125 C 34.377969 20.999904 34.730165 21.178124 35.125 21.34375 A 1.0001 1.0001 0 0 0 35.40625 21.5 C 35.728396 21.612626 36.268678 22.070132 36.65625 22.53125 C 36.766985 22.662998 36.75898 22.666911 36.84375 22.78125 C 36.496114 23.183575 36.098435 23.636317 35.375 24 C 34.433163 24.473477 33.319043 24.746321 32.40625 24.625 C 31.997602 24.5707 31.65647 24.483174 31.34375 24.375 A 1.0001 1.0001 0 0 0 31.15625 24.3125 C 30.601576 24.093138 30.190474 23.798744 29.90625 23.5 C 29.476341 23.04813 29.355334 22.600515 29.34375 22.46875 C 29.44201 22.078145 30.032051 21.380731 30.9375 20.96875 C 31.399362 20.758602 31.905341 20.608812 32.40625 20.5625 z M 17.71875 22.65625 C 17.833089 22.74102 17.837002 22.73302 17.96875 22.84375 C 18.429868 23.231322 18.887374 23.771604 19 24.09375 A 1.0001 1.0001 0 0 0 19.125 24.375 C 19.305982 24.824675 19.502291 25.245364 19.75 25.59375 A 1.0001 1.0001 0 0 0 19.78125 25.6875 C 20.080695 26.513752 19.951547 27.670026 19.53125 28.59375 C 19.119356 29.499007 18.421901 30.0578 18.03125 30.15625 C 17.899456 30.144348 17.451465 30.054442 17 29.625 C 16.510459 29.159339 16.042257 28.352486 15.875 27.09375 C 15.753363 26.181857 15.99516 25.098205 16.46875 24.15625 C 16.83443 23.428925 17.315334 23.002986 17.71875 22.65625 z M 27.65625 25.3125 C 28.157254 25.26619 28.649396 25.319 29.0625 25.46875 A 1.0001 1.0001 0 0 0 29.125 25.46875 A 1.0001 1.0001 0 0 0 29.25 25.53125 C 29.612604 25.783997 30.03229 26.005315 30.5 26.1875 C 30.509025 26.191015 30.522187 26.184016 30.53125 26.1875 A 1.0001 1.0001 0 0 0 30.59375 26.21875 C 30.615784 26.226947 30.633991 26.241991 30.65625 26.25 C 30.978396 26.362626 31.549928 26.820132 31.9375 27.28125 C 32.03439 27.39653 32.01652 27.397275 32.09375 27.5 C 31.748106 27.904353 31.355949 28.382498 30.625 28.75 C 29.683272 29.223477 28.568412 29.496288 27.65625 29.375 C 26.397402 29.207728 25.621844 28.739379 25.15625 28.25 C 24.706175 27.776934 24.626476 27.256353 24.625 27.15625 C 24.741217 26.762118 25.300555 26.122267 26.1875 25.71875 C 26.64942 25.508599 27.155246 25.358813 27.65625 25.3125 z M 12.96875 27.4375 C 13.073488 27.51606 13.069463 27.49454 13.1875 27.59375 C 13.648618 27.981322 14.137374 28.521604 14.25 28.84375 A 1.0001 1.0001 0 0 0 14.375 29.125 C 14.551037 29.549507 14.733463 29.947114 14.96875 30.28125 A 1.0001 1.0001 0 0 0 15.03125 30.46875 C 15.330679 31.294958 15.201552 32.41991 14.78125 33.34375 C 14.36935 34.24912 13.671427 34.808113 13.28125 34.90625 C 13.149456 34.89435 12.701465 34.804442 12.25 34.375 C 11.760459 33.909339 11.292257 33.133736 11.125 31.875 C 11.003363 30.963107 11.24516 29.848205 11.71875 28.90625 C 12.079946 28.187844 12.567774 27.786475 12.96875 27.4375 z M 22.90625 30.0625 C 23.407254 30.01619 23.899396 30.069 24.3125 30.21875 A 1.0001 1.0001 0 0 0 24.5 30.28125 C 24.84704 30.518908 25.244159 30.733332 25.6875 30.90625 A 1.0001 1.0001 0 0 0 25.90625 31 C 26.227755 31.112153 26.768724 31.570076 27.15625 32.03125 C 27.266972 32.163014 27.258987 32.166879 27.34375 32.28125 C 26.997056 32.684556 26.57111 33.165636 25.84375 33.53125 C 24.901749 34.004755 23.787144 34.246286 22.875 34.125 C 22.466352 34.0707 22.12522 33.983174 21.8125 33.875 A 1.0001 1.0001 0 0 0 21.625 33.8125 C 21.070326 33.593138 20.659224 33.298744 20.375 33 C 19.945618 32.548684 19.855597 32.101272 19.84375 31.96875 C 19.94189 31.578573 20.50088 30.88065 21.40625 30.46875 C 21.86817 30.258599 22.405246 30.108813 22.90625 30.0625 z M 18.125 34.84375 C 18.625909 34.79744 19.118124 34.81903 19.53125 34.96875 A 1.0001 1.0001 0 0 0 19.71875 35.03125 C 20.059856 35.271433 20.470999 35.446794 20.90625 35.625 C 20.948967 35.64249 20.987632 35.670735 21.03125 35.6875 A 1.0001 1.0001 0 0 0 21.09375 35.71875 C 21.115784 35.726947 21.133991 35.741991 21.15625 35.75 C 21.478396 35.862626 22.018678 36.351382 22.40625 36.8125 C 22.50546 36.930537 22.48394 36.926512 22.5625 37.03125 C 22.213566 37.432117 21.812191 37.92012 21.09375 38.28125 C 20.151749 38.754755 19.037144 38.996286 18.125 38.875 C 16.866152 38.707728 16.090594 38.239379 15.625 37.75 C 15.195618 37.298684 15.105597 36.851272 15.09375 36.71875 C 15.1922 36.328099 15.750993 35.630644 16.65625 35.21875 C 17.118112 35.008602 17.624091 34.890062 18.125 34.84375 z"/>
</svg>