<svg xmlns="http://www.w3.org/2000/svg" width="52" height="52" viewBox="0 0 26 26">
    <path d="M 8 3.0625 C 1.402 5.1765 0 11 0 11 L 0 24.03125 C 0 24.55525 0.4225 24.96875 0.9375 24.96875 C 0.9625 24.96875 0.974 24.97075 1 24.96875 L 25 23.0625 C 25.551 23.0195 26 22.551 26 22 L 26 18.15625 C 26 18.15625 23.96875 17.582 23.96875 16.125 C 23.96875 14.668 26 14.09375 26 14.09375 L 26 11 L 8 3.0625 z M 7.9375 4.78125 L 9.59375 5.5 C 9.0779731 5.7057018 8.71875 6.0343593 8.71875 6.40625 C 8.71875 7.0297795 9.6532542 7.53125 10.8125 7.53125 C 11.657784 7.53125 12.386103 7.2623071 12.71875 6.875 L 18.40625 9.40625 L 2.40625 9.40625 C 3.27625 7.90225 4.9485 5.90225 7.9375 4.78125 z M 18.34375 11.03125 L 22.03125 11.03125 L 24.40625 12.0625 L 24.40625 13.03125 C 23.38825 13.60425 22.375 14.625 22.375 16.125 C 22.375 17.625 23.38925 18.6145 24.40625 19.1875 L 24.40625 21.53125 L 17 22.125 C 17.181212 21.780866 17.28125 21.385698 17.28125 20.96875 C 17.28125 19.609577 16.189668 18.53125 14.84375 18.53125 C 13.497832 18.53125 12.40625 19.609577 12.40625 20.96875 C 12.40625 21.517433 12.574399 22.02825 12.875 22.4375 L 1.59375 23.3125 L 1.59375 11.875 L 2.90625 11.09375 L 14.34375 11.0625 C 14.241666 11.299727 14.15625 11.571983 14.15625 11.84375 C 14.15625 12.973173 15.145844 13.875 16.34375 13.875 C 17.541655 13.875 18.5 12.973173 18.5 11.84375 C 18.5 11.561395 18.453507 11.27591 18.34375 11.03125 z M 6.5625 12.53125 C 5.1944907 12.53125 4.09375 13.516748 4.09375 14.75 C 4.09375 15.983252 5.1944907 17 6.5625 17 C 7.9305093 17 9.0625 15.983252 9.0625 14.75 C 9.0625 13.516748 7.9305093 12.53125 6.5625 12.53125 z M 11.5625 14.9375 C 10.740148 14.9375 10.09375 15.568895 10.09375 16.34375 C 10.09375 17.118606 10.740148 17.75 11.5625 17.75 C 12.384852 17.75 13.0625 17.118606 13.0625 16.34375 C 13.0625 15.568895 12.384852 14.9375 11.5625 14.9375 z M 20.75 17.28125 C 19.927648 17.28125 19.25 17.912644 19.25 18.6875 C 19.25 19.462355 19.927648 20.09375 20.75 20.09375 C 21.572352 20.09375 22.21875 19.462355 22.21875 18.6875 C 22.21875 17.912644 21.572352 17.28125 20.75 17.28125 z M 4.6875 19.25 C 3.865148 19.25 3.1875 19.881394 3.1875 20.65625 C 3.1875 21.431105 3.865148 22.0625 4.6875 22.0625 C 5.509852 22.0625 6.1875 21.431105 6.1875 20.65625 C 6.1875 19.881394 5.509852 19.25 4.6875 19.25 z"/>
</svg>