<svg xmlns="http://www.w3.org/2000/svg" width="50" height="50" viewBox="0 0 50 50">
    <path style="text-indent:0;text-align:start;line-height:normal;text-transform:none;block-progression:tb;-inkscape-font-specification:Bitstream Vera Sans" d="M 30 0 C 28.906937 0 28 0.9069372 28 2 L 28 3 L 14 3 C 12.676991 3 11.476482 3.3101308 10.5 4.125 C 9.5235179 4.9398692 8.7853614 6.1399627 7.84375 7.90625 C 6.9121587 9.6537416 5.7189477 11.996628 4.75 14.28125 C 3.7810523 16.565872 3 18.689188 3 20.375 C 3 23.526165 5.4849037 26 8.5 26 L 32 26 L 32 33.5625 C 30.141591 35.249261 28.308874 36.458836 26.8125 37.8125 C 25.230843 39.243314 24 40.988371 24 43.375 C 24 45.734267 25.12052 47.555364 26.8125 48.59375 C 28.450715 49.59914 30.543437 49.977068 32.78125 50 A 1.0001 1.0001 0 0 0 32.8125 50 C 32.87549 50.000552 32.936787 50 33 50 C 33.073749 50 33.145307 50.000753 33.21875 50 A 1.0001 1.0001 0 0 0 33.25 50 C 35.475941 49.973867 37.556965 49.594426 39.1875 48.59375 C 40.87948 47.555364 42 45.734267 42 43.375 C 42 40.985233 40.773747 39.247562 39.1875 37.8125 C 37.686784 36.454817 35.842811 35.234847 34 33.5625 L 34 26 L 38.96875 26 C 42.474599 26 45 22.804125 45 19 C 45 16.298517 44.125921 11.237585 43.53125 8.1875 C 43.201688 6.5005906 42.43726 5.159746 41.375 4.28125 C 40.31274 3.402754 38.978728 3 37.59375 3 L 35 3 L 35 2 C 35 0.9069372 34.093063 0 33 0 L 30 0 z M 30 2 L 33 2 L 33 3 L 30 3 L 30 2 z M 14 5 L 37.59375 5 C 38.604772 5 39.46176 5.263996 40.125 5.8125 C 40.78824 6.361004 41.302062 7.2294094 41.5625 8.5625 C 42.145829 11.554415 43 16.763483 43 19 C 43 21.961875 41.264901 24 38.96875 24 L 33.1875 24 A 1.0001 1.0001 0 0 0 32.78125 24 L 8.5 24 C 6.5430963 24 5 22.515835 5 20.375 C 5 19.414812 5.6616977 17.260128 6.59375 15.0625 C 7.5258023 12.864872 8.6813413 10.555258 9.59375 8.84375 C 10.496139 7.1510373 11.179232 6.1586308 11.78125 5.65625 C 12.383268 5.1538692 12.929009 5 14 5 z M 18 7 C 15.802666 7 14 8.8026661 14 11 C 14 13.197334 15.802666 15 18 15 L 35 15 C 37.197334 15 39 13.197334 39 11 C 39 8.8026661 37.197334 7 35 7 L 18 7 z M 18 9 L 35 9 C 36.116666 9 37 9.8833339 37 11 C 37 12.116666 36.116666 13 35 13 L 18 13 C 16.883334 13 16 12.116666 16 11 C 16 9.8833339 16.883334 9 18 9 z M 32 36.09375 L 32 47.96875 C 30.327395 47.863976 28.882104 47.493071 27.875 46.875 C 26.67148 46.136386 26 45.157733 26 43.375 C 26 41.619629 26.757407 40.577936 28.15625 39.3125 C 29.152746 38.411039 30.541501 37.3123 32 36.09375 z M 34 36.125 C 35.454818 37.332418 36.84327 38.376125 37.84375 39.28125 C 39.247753 40.551438 40 41.622767 40 43.375 C 40 45.157733 39.32852 46.136386 38.125 46.875 C 37.117896 47.493071 35.672605 47.863976 34 47.96875 L 34 36.125 z" color="#000" overflow="visible" enable-background="accumulate" font-family="Bitstream Vera Sans"/>
</svg>