<svg xmlns="http://www.w3.org/2000/svg" viewBox="0 0 50 50" width="50" height="50">
    <path style="text-indent:0;text-align:start;line-height:normal;text-transform:none;block-progression:tb;-inkscape-font-specification:Sans" d="M 15.625 4 C 10.043845 4 6.0223598 6.4439802 3.53125 9.65625 C 1.0401402 12.86852 0 16.790951 0 20 C 0 28.896502 3.9486388 35.4613 9.03125 39.71875 C 14.113861 43.9762 20.281441 46 25 46 C 29.718559 46 35.886139 43.9762 40.96875 39.71875 C 46.051361 35.4613 50 28.896502 50 20 C 50 16.790951 48.95986 12.86852 46.46875 9.65625 C 43.97764 6.4439802 39.956155 4 34.375 4 C 30.912725 4 27.704614 4.8692991 25.03125 6.40625 C 22.347154 4.8507649 19.109191 4 15.625 4 z M 15.625 6 C 18.36914 6 20.831406 6.6982746 23 7.75 C 22.95983 7.78236 22.91479 7.811013 22.875 7.84375 C 22.214092 8.3874724 21.607104 8.9786541 21.0625 9.625 C 20.264268 9.4012843 18.492348 9 16.3125 9 C 14.015073 9 11.488241 9.8186575 9.46875 11.625 C 7.4492591 13.431343 6 16.251762 6 20 C 6 20.334365 6.0108127 20.67417 6.03125 21 C 6.0205039 20.999658 6.0108291 21 6 21 C 5.4477153 21 5 21.447715 5 22 C 5 22.552285 5.4477153 23 6 23 C 6.1028766 23 6.1878481 22.966352 6.28125 22.9375 C 6.933507 26.559687 8.5720544 29.35077 9.125 30.21875 C 8.8819858 30.746216 8.8012672 31.36119 8.90625 31.96875 C 9.1876586 33.590199 10.759256 34.678016 12.375 34.40625 C 12.412263 34.399879 12.625716 34.361092 12.75 34.34375 A 1.0001 1.0001 0 0 0 13 34.53125 C 16.836282 36.960755 21.316675 38 25 38 C 28.668684 38 33.063426 36.736463 36.84375 34.25 C 37.136381 34.306276 37.565871 34.396032 37.625 34.40625 C 39.240297 34.676208 40.813703 33.590936 41.09375 31.96875 C 41.194656 31.384781 41.128407 30.793674 40.90625 30.28125 C 41.268865 29.859248 41.746589 29.204566 42.28125 28.125 C 43.153678 26.36343 44 23.675133 44 20 C 44 14.115794 39.569506 9 33.53125 9 C 31.330033 9 28.575084 9.6407889 26.25 11.0625 C 23.924916 12.484211 22 14.820454 22 18 C 22 19.921916 22.642652 21.622834 23.65625 23.03125 C 23.192317 23.486132 22.68177 23.916263 22.125 24.3125 C 20.817751 22.570541 20 20.51392 20 18 C 20 14.47415 21.57007 11.533876 24.15625 9.40625 C 26.74243 7.278624 30.35039 6 34.375 6 C 39.387845 6 42.70711 8.0795198 44.875 10.875 C 47.04289 13.67048 48 17.240049 48 20 C 48 20.318049 47.97918 20.626381 47.96875 20.9375 C 47.931627 20.419039 47.527919 20 47 20 C 46.447715 20 46 20.447715 46 21 C 46 21.552285 46.447715 22 47 22 C 47.51709 22 47.916629 21.597057 47.96875 21.09375 C 47.865874 23.720621 47.409021 26.105995 46.65625 28.25 C 46.480519 28.096697 46.251518 28 46 28 C 45.447715 28 45 28.447715 45 29 C 45 29.527919 45.419039 29.931627 45.9375 29.96875 C 44.432009 33.324726 42.230602 36.057271 39.6875 38.1875 C 34.982611 42.12855 29.131441 44 25 44 C 21.495975 44 16.760862 42.625791 12.53125 39.8125 C 12.803552 39.633833 13 39.350015 13 39 C 13 38.447715 12.552285 38 12 38 C 11.528933 38 11.168486 38.342746 11.0625 38.78125 C 10.813585 38.588576 10.555686 38.391205 10.3125 38.1875 C 5.6076112 34.24645 2 28.309498 2 20 C 2 17.240049 2.9571098 13.67048 5.125 10.875 C 7.2928902 8.0795198 10.612155 6 15.625 6 z M 16.3125 11 C 17.811999 11 19.025482 11.191215 19.84375 11.375 C 18.681305 13.314481 18 15.552813 18 18 C 18 20.89255 18.97133 23.359324 20.4375 25.375 C 19.936205 25.652745 19.424407 25.918917 18.90625 26.15625 C 17.054526 27.0044 15.168094 27.592499 13.75 27.96875 C 12.331906 28.345001 11.309889 28.510703 11.375 28.5 C 11.098852 28.548269 10.836892 28.633142 10.59375 28.75 C 9.7324219 27.241405 8 23.75062 8 20 C 8 16.748238 9.1672409 14.568657 10.78125 13.125 C 12.395259 11.681343 14.501927 11 16.3125 11 z M 33.53125 11 C 38.446994 11 42 15.106206 42 20 C 42 23.368867 41.245572 25.71332 40.5 27.21875 C 40.127214 27.971465 39.789616 28.508491 39.53125 28.84375 C 39.249052 28.68934 38.956029 28.557557 38.625 28.5 C 38.504613 28.479002 37.285951 28.285968 35.4375 27.75 C 33.718108 27.251453 31.536057 26.462698 29.5625 25.375 C 31.042461 23.353439 32 20.913634 32 18 C 32 15.601166 31.370194 13.405397 30.25 11.5 C 31.418346 11.171314 32.574265 11 33.53125 11 z M 28.34375 12.1875 C 29.406398 13.867633 30 15.822455 30 18 C 30 23.03255 26.716514 26.356009 22.8125 28.625 C 18.908486 30.893991 14.460007 31.962275 12.75 32.3125 C 12.353267 32.39378 12.136953 32.424765 12.0625 32.4375 C 11.502244 32.53173 11.002841 32.181551 10.90625 31.625 C 10.81186 31.078727 11.148379 30.577836 11.6875 30.46875 C 11.6891 30.468489 11.71695 30.469048 11.71875 30.46875 C 11.873456 30.44315 12.802989 30.298465 14.28125 29.90625 C 15.776719 29.50947 17.753474 28.883225 19.75 27.96875 C 21.746526 27.054275 23.744901 25.842861 25.3125 24.21875 C 26.880099 22.594639 28 20.502099 28 18 C 28 16.134209 27.476764 14.528666 26.5625 13.25 C 26.795095 13.076926 27.026513 12.905763 27.28125 12.75 C 27.620659 12.542463 27.975562 12.357372 28.34375 12.1875 z M 25.09375 14.6875 C 25.665536 15.574008 26 16.629848 26 18 C 26 19.283601 25.62963 20.398932 25 21.40625 C 24.373125 20.398475 24 19.281723 24 18 C 24 16.688407 24.413498 15.601691 25.09375 14.6875 z M 45 24 C 44.447715 24 44 24.447715 44 25 C 44 25.552285 44.447715 26 45 26 C 45.552285 26 46 25.552285 46 25 C 46 24.447715 45.552285 24 45 24 z M 28.21875 26.9375 C 30.493073 28.249744 32.952984 29.098951 34.875 29.65625 C 36.824549 30.221532 38.315637 30.474748 38.28125 30.46875 C 38.835553 30.56513 39.189779 31.06926 39.09375 31.625 C 38.9978 32.180814 38.500203 32.531542 37.9375 32.4375 C 37.50779 32.363244 31.619865 31.347821 26.71875 28.34375 C 27.246167 27.910642 27.742442 27.430914 28.21875 26.9375 z M 5 27 C 4.4477153 27 4 27.447715 4 28 C 4 28.552285 4.4477153 29 5 29 C 5.5522847 29 6 28.552285 6 28 C 6 27.447715 5.5522847 27 5 27 z M 24.96875 29.59375 C 28.041666 31.626889 31.46836 32.84992 34 33.5625 C 30.973359 35.156116 27.681154 36 25 36 C 22.180287 36 18.702883 35.263774 15.59375 33.6875 C 17.831385 33.074951 20.898541 32.037327 23.8125 30.34375 C 24.20524 30.115491 24.583636 29.848438 24.96875 29.59375 z M 16 37 C 15.447715 37 15 37.447715 15 38 C 15 38.552285 15.447715 39 16 39 C 16.552285 39 17 38.552285 17 38 C 17 37.447715 16.552285 37 16 37 z M 35 38 C 34.447715 38 34 38.447715 34 39 C 34 39.552285 34.447715 40 35 40 C 35.552285 40 36 39.552285 36 39 C 36 38.447715 35.552285 38 35 38 z M 30 40 C 29.447715 40 29 40.447715 29 41 C 29 41.552285 29.447715 42 30 42 C 30.552285 42 31 41.552285 31 41 C 31 40.447715 30.552285 40 30 40 z"/>
</svg>