<svg xmlns="http://www.w3.org/2000/svg" width="50" height="50" viewBox="0 0 50 50">
    <path style="text-indent:0;text-align:start;line-height:normal;text-transform:none;block-progression:tb;-inkscape-font-specification:Bitstream Vera Sans" d="M 15 1 C 11.020299 1 7.5227237 3.8344157 5.03125 7.75 C 2.5397763 11.665584 1 16.745708 1 21.65625 C 1 30.635846 6.9804531 35.986218 13.15625 36.875 C 14.057592 43.046904 19.37315 49 28.34375 49 C 33.254292 49 38.334416 47.460224 42.25 44.96875 C 46.165584 42.477276 49 38.979701 49 35 C 49 31.020299 46.165584 27.522724 42.25 25.03125 C 38.500421 22.645404 33.682578 21.155263 28.96875 21.03125 C 28.844737 16.317422 27.354596 11.499579 24.96875 7.75 C 22.477276 3.8344157 18.979701 1 15 1 z M 15 3 C 17.982299 3 20.981974 5.2793343 23.25 8.84375 C 25.418217 12.251307 26.845344 16.761776 26.96875 21.0625 C 18.063194 21.691423 13.109577 28.391421 13 34.78125 C 7.9186371 33.865578 3 29.522441 3 21.65625 C 3 17.180792 4.4819737 12.408166 6.75 8.84375 C 9.0180263 5.2793343 12.017701 3 15 3 z M 28.15625 23 A 1.0157452 1.0157452 0 0 0 28.1875 23 C 28.240584 22.999548 28.290345 23 28.34375 23 C 32.819208 23 37.591834 24.481974 41.15625 26.75 C 44.720666 29.018026 47 32.017701 47 35 C 47 37.982299 44.720666 40.981974 41.15625 43.25 C 37.591834 45.518026 32.819208 47 28.34375 47 C 20.015764 47 15.596904 41.47318 15.0625 36.09375 A 1.0186254 1.0186254 0 0 0 15.0625 36.0625 C 15.060465 36.04144 15.064416 36.021055 15.0625 36 A 1.0186254 1.0186254 0 0 0 15.03125 35.6875 C 15.016736 35.455654 15 35.230343 15 35 C 15 29.410557 19.283556 23.266637 27.84375 23.03125 A 1.0157452 1.0157452 0 0 0 27.90625 23.03125 A 1.0157452 1.0157452 0 0 0 28.15625 23 z" color="#000" overflow="visible" enable-background="accumulate" font-family="Bitstream Vera Sans"/>
</svg>