<svg xmlns="http://www.w3.org/2000/svg" version="1" viewBox="0 0 50 50" enable-background="new 0 0 50 50" width="50" height="50">
    <path style="text-indent:0;text-align:start;line-height:normal;text-transform:none;block-progression:tb;-inkscape-font-specification:Bitstream Vera Sans" d="M 20.96875 -0.03125 C 20.822066 -0.027349123 20.678201 0.0090397825 20.5 0.0625 C 20.143599 0.16942044 19.812866 0.43885398 19.625 0.6875 C 19.437134 0.93614602 19.325254 1.1969408 19.1875 1.5 A 1.0001 1.0001 0 0 0 19.15625 1.59375 C 18.863277 2.4726681 17.838677 5.3642043 17.34375 6.75 C 17.244235 7.0286418 17.163197 7.2901152 17.125 7.5625 L 14.75 13.3125 L 4.71875 3.28125 A 1.0001 1.0001 0 0 0 3.78125 3 A 1.0001 1.0001 0 0 0 3.28125 4.71875 L 45.28125 46.71875 A 1.016466 1.016466 0 1 0 46.71875 45.28125 L 36.75 35.3125 L 42.625 32.84375 L 42.625 32.875 C 42.64581 32.8704 42.69698 32.84887 42.71875 32.84375 C 43.347811 32.695638 44.34407 32.345376 45.4375 31.96875 C 46.55695 31.583162 47.66489 31.205963 48.09375 31.0625 C 48.10756 31.0584 48.1112 31.03552 48.125 31.03125 C 48.742954 30.840316 49.350893 30.543868 49.71875 29.90625 C 50.089909 29.262909 50.037838 28.438666 49.71875 27.71875 C 49.71685 27.71385 49.72065 27.69246 49.71875 27.6875 C 48.644123 24.948279 45.77855 16.726321 39.59375 10.53125 C 39.58785 10.52535 39.59965 10.50586 39.59375 10.5 C 33.608397 4.4205815 25.753911 1.171072 22.15625 0.21875 L 22.15625 0.25 C 21.753027 0.14002997 21.408801 -0.04295263 20.96875 -0.03125 z M 21.1875 2 C 21.16571 2.026946 21.1845 2.036108 21.625 2.15625 A 1.0001 1.0001 0 0 0 21.65625 2.15625 C 24.855146 3.0030166 32.57499 6.1969721 38.1875 11.90625 C 43.979296 17.698046 46.746179 25.595387 47.875 28.46875 A 1.0001 1.0001 0 0 0 47.875 28.5 C 48.044696 28.873331 47.998925 28.908112 48 28.90625 C 48.0011 28.90435 47.868189 29.045793 47.5 29.15625 A 1.0001 1.0001 0 0 0 47.46875 29.15625 C 46.987127 29.316791 45.899989 29.708406 44.78125 30.09375 C 43.662511 30.479094 42.465232 30.875782 42.1875 30.9375 A 1.0001 1.0001 0 0 0 42.125 30.9375 C 42.1341 30.9447 42.10379 30.95702 42.0625 30.8125 A 1.0001 1.0001 0 0 0 42.03125 30.75 C 41.097108 28.155161 38.464213 22.065681 33.21875 16.8125 C 33.21305 16.8067 33.1932 16.8183 33.1875 16.8125 C 28.22786 11.757571 22.228395 9.0878444 19.5625 8.0625 A 1.0001 1.0001 0 0 0 19.53125 8.0625 C 19.330463 7.9955709 19.202043 7.9449709 19.125 7.90625 C 19.130345 7.8751236 19.169183 7.7593572 19.1875 7.6875 C 19.220833 7.6041667 19.238426 7.5240741 19.25 7.4375 C 19.755073 6.0232957 20.755473 3.1398319 21.0625 2.21875 C 21.112262 2.1179251 21.159111 2.0474367 21.1875 2 z M 18.34375 9.75 C 18.515054 9.8118859 18.687076 9.8551103 18.84375 9.90625 L 18.84375 9.9375 C 18.85095 9.93985 18.8679 9.93513 18.875 9.9375 C 21.414842 10.91588 27.15453 13.46439 31.78125 18.1875 A 1.0001 1.0001 0 0 0 31.78125 18.21875 C 36.696487 23.133987 39.246168 28.947564 40.125 31.375 C 40.1313 31.39717 40.14937 31.41546 40.15625 31.4375 C 40.185804 31.532222 40.240419 31.627596 40.28125 31.71875 L 35.25 33.8125 L 34.65625 33.21875 C 36.071908 32.326497 37 30.775676 37 29 C 37 26.2 34.8 24 32 24 C 30.224324 24 28.673503 24.928092 27.78125 26.34375 L 16.28125 14.84375 L 18.34375 9.75 z M 13.09375 17.1875 L 0.09375 48.59375 C -0.10625 48.99375 0.0125 49.3875 0.3125 49.6875 C 0.5125 49.8875 0.7 50 1 50 C 1.1 50 1.30625 50.00625 1.40625 49.90625 L 32.8125 36.90625 L 31.1875 35.40625 L 23.90625 38.40625 C 24.00625 38.10625 24 37.8 24 37.5 C 24 35 22 33 19.5 33 C 17 33 15 35 15 37.5 C 15 39.1 15.8 40.3875 17 41.1875 L 2.8125 47.1875 L 6 39.59375 C 6.7 40.39375 7.8 41 9 41 C 11.2 41 13 39.2 13 37 C 13 34.8 11.2 33 9 33 L 8.6875 33 L 11.40625 26.40625 C 12.50625 27.90625 14.3125 28.90625 16.3125 28.90625 C 18.6125 28.90625 20.59375 27.5875 21.59375 25.6875 L 20.09375 24.1875 C 19.59375 25.7875 18.1125 26.90625 16.3125 26.90625 C 14.5125 26.90625 12.90625 25.7 12.40625 24 L 14.3125 19.5 C 14.5125 19.4 14.79375 19.2875 15.09375 19.1875 L 13.09375 17.1875 z M 32 26 C 33.7 26 35 27.3 35 29 C 35 30.264911 34.287451 31.329991 33.21875 31.78125 L 33.1875 31.78125 L 29.21875 27.8125 C 29.222274 27.803932 29.215151 27.789774 29.21875 27.78125 C 29.670009 26.712549 30.735089 26 32 26 z M 9 35 C 10.1 35 11 35.9 11 37 C 11 38.1 10.1 39 9 39 C 7.9 39 7.1 38.19375 7 37.09375 L 7.6875 35.5 C 7.9875 35.2 8.5 35 9 35 z M 19.5 35 C 20.9 35 22 36.1 22 37.5 C 22 38.9 20.9 40 19.5 40 C 18.1 40 17 38.9 17 37.5 C 17 36.1 18.1 35 19.5 35 z" color="#000" overflow="visible" enable-background="accumulate" font-family="Bitstream Vera Sans"/>
</svg>