<svg xmlns="http://www.w3.org/2000/svg" width="50" height="50" viewBox="0 0 50 50">
    <path style="text-indent:0;text-align:start;line-height:normal;text-transform:none;block-progression:tb;-inkscape-font-specification:Bitstream Vera Sans" d="M 28.78125 0 A 1.0001 1.0001 0 0 0 28.65625 1.9375 C 28.65625 1.9375 29.062166 2.0483826 29.59375 2.75 C 30.113483 3.4359762 30.65623 4.670555 30.5 7 C 29.693537 7.813323 28.896366 8.7123884 28.15625 9.71875 A 1.0001 1.0001 0 1 0 29.75 10.90625 C 35.396368 3.228684 43.75 2 43.75 2 A 1.0098393 1.0098393 0 1 0 43.46875 0 C 43.46875 0 37.855128 0.85161665 32.46875 5.21875 C 32.304718 3.5592782 31.795227 2.3646159 31.1875 1.5625 C 30.345834 0.45161744 29.28125 0.0625 29.28125 0.0625 A 1.0001 1.0001 0 0 0 28.78125 0 z M 21 6 C 17.698136 6 15 8.6981362 15 12 C 15 15.301864 17.698136 18 21 18 C 24.301864 18 27 15.301864 27 12 C 27 8.6981362 24.301864 6 21 6 z M 21 8 C 23.220984 8 25 9.7790164 25 12 C 25 14.220984 23.220984 16 21 16 C 18.779016 16 17 14.220984 17 12 C 17 9.7790164 18.779016 8 21 8 z M 33 11 C 29.698136 11 27 13.698136 27 17 C 27 20.301864 29.698136 23 33 23 C 36.301864 23 39 20.301864 39 17 C 39 13.698136 36.301864 11 33 11 z M 33 13 C 35.220984 13 37 14.779016 37 17 C 37 19.220984 35.220984 21 33 21 C 30.779016 21 29 19.220984 29 17 C 29 14.779016 30.779016 13 33 13 z M 12 14 C 8.6981362 14 6 16.698136 6 20 C 6 23.301864 8.6981362 26 12 26 C 15.301864 26 18 23.301864 18 20 C 18 16.698136 15.301864 14 12 14 z M 12 16 C 14.220984 16 16 17.779016 16 20 C 16 22.220984 14.220984 24 12 24 C 9.7790164 24 8 22.220984 8 20 C 8 17.779016 9.7790164 16 12 16 z M 23 19 C 19.698136 19 17 21.698136 17 25 C 17 28.301864 19.698136 31 23 31 C 26.301864 31 29 28.301864 29 25 C 29 21.698136 26.301864 19 23 19 z M 23 21 C 25.220984 21 27 22.779016 27 25 C 27 27.220984 25.220984 29 23 29 C 20.779016 29 19 27.220984 19 25 C 19 22.779016 20.779016 21 23 21 z M 35 23 C 31.698136 23 29 25.698136 29 29 C 29 32.301864 31.698136 35 35 35 C 38.301864 35 41 32.301864 41 29 C 41 25.698136 38.301864 23 35 23 z M 35 25 C 37.220984 25 39 26.779016 39 29 C 39 31.220984 37.220984 33 35 33 C 32.779016 33 31 31.220984 31 29 C 31 26.779016 32.779016 25 35 25 z M 13 26 C 9.698136 26 7 28.698136 7 32 C 7 35.301864 9.698136 38 13 38 C 16.301864 38 19 35.301864 19 32 C 19 28.698136 16.301864 26 13 26 z M 13 28 C 15.220984 28 17 29.779016 17 32 C 17 34.220984 15.220984 36 13 36 C 10.779016 36 9 34.220984 9 32 C 9 29.779016 10.779016 28 13 28 z M 25 31 C 21.698136 31 19 33.698136 19 37 C 19 40.301864 21.698136 43 25 43 C 28.301864 43 31 40.301864 31 37 C 31 33.698136 28.301864 31 25 31 z M 25 33 C 27.220984 33 29 34.779016 29 37 C 29 39.220984 27.220984 41 25 41 C 22.779016 41 21 39.220984 21 37 C 21 34.779016 22.779016 33 25 33 z M 15 38 C 11.698136 38 9 40.698136 9 44 C 9 47.301864 11.698136 50 15 50 C 18.301864 50 21 47.301864 21 44 C 21 40.698136 18.301864 38 15 38 z M 15 40 C 17.220984 40 19 41.779016 19 44 C 19 46.220984 17.220984 48 15 48 C 12.779016 48 11 46.220984 11 44 C 11 41.779016 12.779016 40 15 40 z"/>
</svg>