<svg xmlns="http://www.w3.org/2000/svg" viewBox="0 0 50 50" enable-background="new 0 0 50 50" width="50" height="50">
    <path style="text-indent:0;text-align:start;line-height:normal;text-transform:none;block-progression:tb;-inkscape-font-specification:Bitstream Vera Sans" d="M 47.1875 2 L 24 5.3125 L 24 7.5 L 47.59375 5 C 48.29375 4.9 48.9125 4.2875 48.8125 3.6875 L 48.6875 3 C 48.5875 2.3 47.9875 1.9 47.1875 2 z M 21.90625 2.6875 A 1.0001 1.0001 0 0 0 21.09375 3.6875 L 21.09375 5.75 L 20 5.90625 L 20 7.90625 L 21.09375 7.78125 L 21.09375 11 L 20 11 L 20 13 L 21.09375 13.0625 L 21.09375 14 A 1.0001 1.0001 0 1 0 23.09375 14 L 23.09375 3.6875 A 1.0001 1.0001 0 0 0 22 2.6875 A 1.0001 1.0001 0 0 0 21.90625 2.6875 z M 17.90625 2.96875 A 1.0001 1.0001 0 0 0 17.78125 3 A 1.0001 1.0001 0 0 0 17 4 L 17 6.25 L 16 6.40625 L 16 8.3125 L 17 8.1875 L 17 11 L 16 11 L 16 12.90625 L 17 12.9375 L 17 14 A 1.0001 1.0001 0 1 0 19 14 L 19 4 A 1.0001 1.0001 0 0 0 17.90625 2.96875 z M 13.90625 3.96875 A 1.0001 1.0001 0 0 0 13.78125 4 A 1.0001 1.0001 0 0 0 13 5 L 13 6.84375 L 12 7 L 12 8.8125 L 13 8.6875 L 13 11 L 12 11 L 12 12.8125 L 13 12.8125 L 13 14 A 1.0001 1.0001 0 1 0 15 14 L 15 5 A 1.0001 1.0001 0 0 0 13.90625 3.96875 z M 9.90625 5.46875 A 1.0001 1.0001 0 0 0 9.78125 5.5 A 1.0001 1.0001 0 0 0 9 6.5 L 9 7.46875 L 3 8.3125 L 3.1875 9.6875 L 9 9.09375 L 9 11 L 3 11 L 3 12.5 L 9 12.65625 L 9 15.8125 A 1.0001 1.0001 0 0 0 9 15.90625 L 9 26.8125 L 11 26.8125 L 11 15.96875 A 1.0001 1.0001 0 0 0 11 15.8125 L 11 13.90625 L 11 6.5 A 1.0001 1.0001 0 0 0 9.90625 5.46875 z M 24 11 L 24 13.1875 L 47.59375 14 C 48.29375 14 49 13.5125 49 12.8125 L 49 12.1875 C 49 11.4875 48.3875 11 47.6875 11 L 24 11 z M 0.8125 28 A 1.0001 1.0001 0 0 0 0 29 L 0 32.59375 C 0 37.460417 2.6390656 41.7918 6.09375 44.90625 C 9.5484344 48.0207 13.826263 50 17.5 50 L 32.5 50 C 36.173737 50 40.451566 48.0207 43.90625 44.90625 C 47.360934 41.7918 50 37.460417 50 32.59375 L 50 29 A 1.0001 1.0001 0 0 0 49 28 L 1 28 A 1.0001 1.0001 0 0 0 0.90625 28 A 1.0001 1.0001 0 0 0 0.8125 28 z M 2 30 L 48 30 L 48 32.59375 C 48 36.727083 45.707816 40.60195 42.5625 43.4375 C 39.417184 46.27305 35.426263 48 32.5 48 L 17.5 48 C 14.573737 48 10.582816 46.27305 7.4375 43.4375 C 4.2921844 40.60195 2 36.727083 2 32.59375 L 2 30 z"/>
</svg>