<svg xmlns="http://www.w3.org/2000/svg" viewBox="0 0 50 50" enable-background="new 0 0 50 50" width="50" height="50">
    <path style="text-indent:0;text-align:start;line-height:normal;text-transform:none;block-progression:tb;-inkscape-font-specification:Bitstream Vera Sans" d="M 29.40625 0.9375 C 28.948899 0.93779774 28.479452 1.1142977 28.09375 1.5 C 26.496966 3.1500096 25.585898 4.7833006 25.09375 6 C 24.984219 6.2707853 24.886527 6.5187856 24.8125 6.75 C 23.74042 6.3119792 22.453145 6 20.90625 6 C 17.634216 6 15.4763 7.6472267 14.28125 9.25 C 13.47707 10.328547 13.131865 11.216473 12.9375 11.8125 C 10.9403 11.947503 9.0700885 12.527192 7.65625 13.8125 C 6.059826 15.263795 5.09375 17.494551 5.09375 20.3125 C 5.09375 27.196808 9.0723704 34.081645 10.3125 38.625 C 10.883917 41.014562 11.767997 43.282051 13.15625 45.03125 C 14.544503 46.780449 16.539922 48 19 48 C 20.503333 48 21.750798 47.424291 22.75 46.9375 C 23.749202 46.450709 24.522549 46.09375 25 46.09375 C 25.477451 46.09375 26.304205 46.452498 27.3125 46.9375 C 28.320795 47.422502 29.536111 48 31 48 C 33.42907 48 35.351969 46.889003 36.71875 45.1875 C 38.085531 43.485997 38.983831 41.241396 39.75 38.6875 C 40.282471 36.944868 41.609683 33.230321 42.78125 29.3125 C 43.952817 25.394679 45 21.314112 45 18.40625 C 45 15.250694 44.264747 12.614019 42.6875 10.75 C 41.110253 8.8859811 38.728549 7.90625 35.8125 7.90625 C 33.845833 7.90625 32.349371 8.3981643 31.25 8.875 C 30.150629 9.3518357 29.375962 9.6875 29.1875 9.6875 C 29.265894 9.6875 29.102641 9.6149431 28.8125 9.40625 C 29.398491 7.2612251 31.594535 5.7088258 32.5625 5.03125 L 32.65625 4.96875 L 32.71875 4.90625 C 33.065169 4.5598314 33.252049 4.0932418 33.21875 3.59375 C 33.18638 3.1082399 32.850037 2.6015258 32.375 2.34375 L 32.375 2.3125 L 32.34375 2.3125 L 30.59375 1.3125 L 30.5625 1.375 C 30.196472 1.1301414 29.820649 0.93723022 29.40625 0.9375 z M 29.5 2.9375 C 29.4943 2.962357 29.48933 2.992 29.5 3 L 29.5625 3.03125 L 29.625 3.0625 L 30.90625 3.78125 C 29.892337 4.4813569 28.034398 5.8559664 27.15625 8.09375 C 27.143375 8.084059 27.137996 8.0722145 27.125 8.0625 C 26.974862 7.9502755 26.79205 7.8309409 26.625 7.71875 C 26.689284 7.4661375 26.772561 7.1577686 26.9375 6.75 C 27.341965 5.7500726 28.119084 4.3743374 29.5 2.9375 z M 20.90625 8 C 23.323546 8 24.769625 8.8066514 25.90625 9.65625 C 26.474563 10.081049 26.962945 10.523154 27.4375 10.90625 C 27.912055 11.289346 28.397024 11.6875 29.1875 11.6875 C 30.299038 11.6875 31.055621 11.141914 32.03125 10.71875 C 33.006879 10.295586 34.179167 9.90625 35.8125 9.90625 C 38.296451 9.90625 39.983497 10.645269 41.15625 12.03125 C 42.329003 13.417231 43 15.561806 43 18.40625 C 43 20.798388 41.997183 24.892821 40.84375 28.75 C 39.690317 32.607179 38.411279 36.236382 37.84375 38.09375 L 37.84375 38.125 C 37.109919 40.571104 36.239469 42.589003 35.15625 43.9375 C 34.073031 45.285997 32.87093 46 31 46 C 30.063889 46 29.122955 45.621248 28.15625 45.15625 C 27.189545 44.691252 26.222549 44.09375 25 44.09375 C 23.777451 44.09375 22.825798 44.693041 21.875 45.15625 C 20.924202 45.619459 19.996667 46 19 46 C 17.160078 46 15.830497 45.213301 14.71875 43.8125 C 13.607003 42.411699 12.809833 40.366688 12.28125 38.15625 L 12.25 38.125 C 10.880374 33.067919 7.09375 26.4125 7.09375 20.3125 C 7.09375 17.930449 7.846424 16.329955 9 15.28125 C 9.8781834 14.482902 11.033028 13.977565 12.375 13.78125 C 10.014346 27.13384 17.21875 40.28125 17.21875 40.28125 L 18.96875 39.3125 C 18.96875 39.3125 11.978959 26.256937 14.40625 13.6875 L 14.5 13.6875 L 14.6875 12.9375 C 14.6875 12.9375 14.94505 11.684727 15.875 10.4375 C 16.80495 9.1902733 18.278284 8 20.90625 8 z" color="#000" overflow="visible" enable-background="accumulate" font-family="Bitstream Vera Sans"/>
</svg>