<svg xmlns="http://www.w3.org/2000/svg" width="50" height="50" viewBox="0 0 50 50">
    <path style="text-indent:0;text-align:start;line-height:normal;text-transform:none;block-progression:tb;-inkscape-font-specification:Bitstream Vera Sans" d="M 13 0 C 9.6981359 0 7 2.6981362 7 6 C 7 9.3018638 9.6981359 12 13 12 C 13.216964 12 13.445094 11.991455 13.65625 11.96875 L 17.09375 26.875 C 15.693783 27.208103 14.422841 27.625554 13.28125 28.125 C 11.747974 28.795808 10.467431 29.625396 9.53125 30.59375 C 8.6494378 31.505867 8.0642967 32.592587 8 33.78125 L 5.5625 40.65625 A 0.99409942 0.99409942 0 0 0 5.5 41 C 5.5 42.415097 6.1872575 43.726007 7.25 44.8125 C 8.3127425 45.898993 9.7727856 46.802072 11.53125 47.5625 C 15.048179 49.083355 19.775337 50 25 50 C 30.224663 50 34.951821 49.083355 38.46875 47.5625 C 40.227214 46.802072 41.687257 45.898993 42.75 44.8125 C 43.812743 43.726007 44.5 42.415097 44.5 41 A 0.99409942 0.99409942 0 0 0 44.4375 40.65625 L 42 33.78125 C 41.935703 32.592587 41.350562 31.505867 40.46875 30.59375 C 39.532569 29.625396 38.252026 28.795808 36.71875 28.125 C 35.398299 27.547303 33.878087 27.102712 32.21875 26.75 L 34.71875 12.71875 C 34.819551 12.041443 35.327466 10.449203 35.8125 8.9375 C 36.293921 7.4370576 36.754708 6.044313 36.875 5.0625 C 36.875903 5.05513 36.874138 5.038574 36.875 5.03125 C 36.974821 4.1695779 36.919659 3.1394573 36.5 2.1875 C 36.075807 1.2252585 35.148391 0.31241996 33.84375 0.15625 C 32.530604 0.00061782328 31.417841 0.69303441 30.78125 1.53125 C 30.144659 2.3694656 29.850926 3.3377309 29.75 4.1875 C 29.635167 5.1550779 29.79097 6.5958705 29.90625 8.1875 C 30.021526 9.7791295 30.093164 11.466627 30.03125 12.15625 A 1.0001 1.0001 0 0 0 30.03125 12.1875 L 29.15625 26.25 C 27.825588 26.100413 26.434715 26 25 26 C 22.908 26 20.913907 26.188894 19.0625 26.5 L 15.5625 11.40625 C 17.58666 10.439783 19 8.3835329 19 6 C 19 2.6981362 16.301864 0 13 0 z M 13 2 C 15.220984 2 17 3.7790164 17 6 C 17 7.781673 15.84945 9.2586431 14.25 9.78125 A 1.0001 1.0001 0 0 0 13.96875 9.875 C 13.659258 9.9509345 13.334036 10 13 10 C 10.779016 10 9 8.2209836 9 6 C 9 3.7790164 10.779016 2 13 2 z M 33.25 2.15625 C 33.367125 2.139477 33.480787 2.139158 33.625 2.15625 C 34.208359 2.22608 34.428443 2.4832415 34.65625 3 C 34.884057 3.5167585 34.971641 4.2701381 34.90625 4.8125 C 34.85601 5.2392328 34.391716 6.799453 33.90625 8.3125 C 33.424216 9.8148504 32.912903 11.306627 32.75 12.375 C 32.7488 12.3826 32.7511 12.39869 32.75 12.40625 L 31.625 18.71875 L 32.03125 12.34375 L 32.03125 12.3125 C 32.124328 11.23141 31.989633 9.6452482 31.875 8.0625 C 31.759526 6.4681295 31.671583 4.8349221 31.71875 4.4375 C 31.779824 3.9232691 32.028091 3.2067844 32.375 2.75 C 32.635182 2.4074117 32.898624 2.2065691 33.25 2.15625 z M 33.25 3.625 C 32.834471 3.695 32.478875 4.17225 32.40625 4.78125 C 32.32225 5.47825 32.639 6.09725 33.125 6.15625 C 33.614 6.21425 34.07125 5.697 34.15625 5 C 34.23625 4.304 33.9255 3.684 33.4375 3.625 C 33.37675 3.61775 33.309361 3.615 33.25 3.625 z M 25 28 C 26.400275 28 27.745196 28.097734 29.03125 28.25 L 28.5625 36.03125 L 28.5625 36.09375 L 28.5625 36.21875 A 1.0001 1.0001 0 0 0 30.53125 36.4375 L 30.53125 36.34375 L 31.875 28.71875 C 33.385793 29.047021 34.753788 29.464548 35.90625 29.96875 C 37.268404 30.564692 38.348143 31.262167 39.03125 31.96875 C 39.682829 32.642721 39.974623 33.278047 40 33.90625 C 40.001228 33.936647 40 33.969646 40 34 A 0.99853408 0.99853408 0 0 0 40 34.125 C 39.96661 34.743386 39.67232 35.368149 39.03125 36.03125 C 38.348143 36.737833 37.268404 37.435308 35.90625 38.03125 C 33.181942 39.223135 29.300057 40 25 40 C 20.699943 40 16.818058 39.223135 14.09375 38.03125 C 12.731596 37.435308 11.651857 36.737833 10.96875 36.03125 C 10.306662 35.346408 10.01714 34.700522 10 34.0625 A 0.99409942 0.99409942 0 0 0 10 33.96875 C 10.00868 33.320904 10.296152 32.664462 10.96875 31.96875 C 11.651857 31.262167 12.731596 30.564692 14.09375 29.96875 C 15.107451 29.525256 16.266349 29.12243 17.5625 28.8125 L 18.59375 33.34375 A 1.0001 1.0001 0 1 0 20.53125 32.90625 L 19.5 28.4375 C 21.206416 28.152739 23.053675 28 25 28 z M 9.0625 36.84375 C 9.2123755 37.038435 9.355716 37.224684 9.53125 37.40625 C 10.467431 38.374604 11.747974 39.204192 13.28125 39.875 C 16.347803 41.216617 20.463501 42 25 42 C 29.536499 42 33.652197 41.216617 36.71875 39.875 C 38.252026 39.204192 39.532569 38.374604 40.46875 37.40625 C 40.644284 37.224684 40.787625 37.038435 40.9375 36.84375 L 42.46875 41.09375 C 42.44068 41.855934 42.120702 42.611935 41.34375 43.40625 C 40.534149 44.233944 39.276911 45.062678 37.6875 45.75 C 34.508679 47.124645 29.992337 48 25 48 C 20.007663 48 15.491321 47.124645 12.3125 45.75 C 10.723089 45.062678 9.4658512 44.233944 8.65625 43.40625 C 7.8792983 42.611935 7.5593178 41.855934 7.53125 41.09375 L 9.0625 36.84375 z" color="#000" overflow="visible" enable-background="accumulate" font-family="Bitstream Vera Sans"/>
</svg>