<svg xmlns="http://www.w3.org/2000/svg" width="50" height="50" viewBox="0 0 50 50">
    <path style="text-indent:0;text-align:start;line-height:normal;text-transform:none;block-progression:tb;-inkscape-font-specification:Bitstream Vera Sans" d="M 25 1 C 11.758465 1 1 11.757455 1 25 C 1 38.242545 11.758465 49 25 49 C 38.241535 49 49 38.242545 49 25 C 49 11.757455 38.241535 1 25 1 z M 25 3 C 27.105901 3 29.134857 3.2926683 31.0625 3.84375 L 25.03125 6.4375 L 18.96875 3.84375 C 20.887821 3.297981 22.904647 3 25 3 z M 16.1875 4.84375 L 24.03125 8.1875 L 24.03125 14.6875 L 14.71875 21.5 L 9.40625 18.90625 L 8.6875 10.25 C 10.762449 7.9618354 13.318641 6.0997638 16.1875 4.84375 z M 33.84375 4.84375 C 36.734681 6.1139484 39.294507 7.9930437 41.375 10.3125 L 40.59375 18.9375 L 35.5625 21.65625 L 26.03125 14.6875 L 26.03125 8.15625 L 33.84375 4.84375 z M 6.875 12.5625 L 7.46875 19.21875 A 1.0001 1.0001 0 0 0 7.46875 19.25 L 3.03125 24.3125 C 3.1649233 19.952236 4.5619361 15.924088 6.875 12.5625 z M 43.1875 12.625 C 45.454372 15.956756 46.825224 19.949056 46.96875 24.25 L 42.59375 19.25 L 43.1875 12.625 z M 25.03125 16.4375 L 34.09375 23.0625 L 30.625 33.71875 L 19.4375 33.71875 L 15.96875 23.03125 L 25.03125 16.4375 z M 8.71875 20.8125 L 13.96875 23.375 L 17.5625 34.5 L 14.46875 37.96875 L 5.9375 36 C 4.4235502 33.379022 3.4456285 30.412489 3.125 27.25 L 8.71875 20.8125 z M 41.34375 20.8125 L 46.875 27.1875 C 46.559506 30.388065 45.56724 33.384168 44.03125 36.03125 L 35.59375 37.96875 L 32.5 34.5 L 35.96875 23.6875 L 41.34375 20.8125 z M 19.15625 35.71875 L 30.90625 35.71875 L 34.03125 39.21875 L 29.65625 46.5 C 28.154449 46.823201 26.599176 47 25 47 C 23.424497 47 21.887485 46.845198 20.40625 46.53125 L 16.03125 39.21875 L 19.15625 35.71875 z M 7.625 38.46875 L 14.15625 39.96875 L 17.59375 45.71875 C 13.609319 44.295776 10.16933 41.747655 7.625 38.46875 z M 42.375 38.46875 C 39.850305 41.722351 36.445505 44.258447 32.5 45.6875 L 35.90625 39.96875 L 42.375 38.46875 z"/>
</svg>