<svg xmlns="http://www.w3.org/2000/svg" viewBox="0 0 32 32" width="64" height="64">
    <path style="text-indent:0;text-align:start;line-height:normal;text-transform:none;block-progression:tb;-inkscape-font-specification:Sans" d="M 3 7 L 3 8 L 3 24 L 3 25 L 4 25 L 28 25 L 29 25 L 29 24 L 29 8 L 29 7 L 28 7 L 4 7 L 3 7 z M 7.3125 9 L 24.6875 9 L 16 14.78125 L 7.3125 9 z M 5 9.875 L 11.75 14.375 L 5 19.09375 L 5 9.875 z M 27 9.875 L 27 19.09375 L 20.25 14.375 L 27 9.875 z M 13.5 15.5625 L 15.4375 16.84375 L 16 17.1875 L 16.5625 16.84375 L 18.5 15.5625 L 27 21.5 L 27 23 L 5 23 L 5 21.5 L 13.5 15.5625 z" color="#000" overflow="visible" font-family="Sans"/>
</svg>