<svg xmlns="http://www.w3.org/2000/svg" viewBox="13 -13 50 50" width="50" height="50">
    <path style="text-indent:0;text-align:start;line-height:normal;text-transform:none;block-progression:tb;-inkscape-font-specification:Bitstream Vera Sans" d="M 22 0 C 21.477778 0 20.939531 0.185469 20.5625 0.5625 C 20.185469 0.939531 20 1.477778 20 2 L 20 5.6875 A 1.001098 1.001098 0 0 0 20 6.28125 L 20 13.34375 C 19.255911 13.651442 18.311357 14.146397 17.34375 15.125 C 16.082768 16.400312 15 18.423506 15 21.3125 L 15 47.09375 C 15 48.627083 16.279167 49.90625 17.8125 49.90625 L 32.1875 49.90625 C 33.720833 49.90625 35 48.627083 35 47.09375 L 35 21.3125 C 35 18.46891 33.912276 16.440822 32.65625 15.15625 C 31.695034 14.173189 30.750078 13.693812 30 13.375 L 30 6.1875 A 1.0001 1.0001 0 0 0 30 5.78125 L 30 2 C 30 1.477778 29.814531 0.939531 29.4375 0.5625 C 29.060469 0.185469 28.522222 0 28 0 L 22 0 z M 22 2 L 28 2 L 28 5 L 22 5 L 22 2 z M 22 7 L 28 7 L 28 14 A 1.0001 1.0001 0 0 0 28.6875 14.9375 C 29.184726 15.103242 30.306026 15.597072 31.25 16.5625 C 32.193974 17.527928 33 18.95609 33 21.3125 L 33 47.09375 C 33 47.560417 32.654167 47.90625 32.1875 47.90625 L 17.8125 47.90625 C 17.345833 47.90625 17 47.560417 17 47.09375 L 17 21.3125 C 17 18.901494 17.810982 17.449688 18.75 16.5 C 19.689018 15.550312 20.791557 15.111148 21.3125 14.9375 A 1.0001 1.0001 0 0 0 22 14 L 22 7 z M 19.8125 25 A 1.0001 1.0001 0 0 0 19 26 L 19 42 A 1.0001 1.0001 0 0 0 20 43 L 30 43 A 1.0001 1.0001 0 0 0 31 42 L 31 26 A 1.0001 1.0001 0 0 0 30 25 L 20 25 A 1.0001 1.0001 0 0 0 19.90625 25 A 1.0001 1.0001 0 0 0 19.8125 25 z M 21 27 L 29 27 L 29 30 L 21 30 L 21 27 z M 21 32 L 29 32 L 29 41 L 21 41 L 21 32 z" transform="translate(13 -13)" color="#000" overflow="visible" font-family="Bitstream Vera Sans"/>
</svg>