<svg xmlns="http://www.w3.org/2000/svg" viewBox="0 0 50 50" enable-background="new 0 0 50 50" width="50" height="50">
    <path style="text-indent:0;text-align:start;line-height:normal;text-transform:none;block-progression:tb;-inkscape-font-specification:Bitstream Vera Sans" d="M 22 0 C 20.354545 0 19 1.3545455 19 3 L 19 7.71875 C 14.930537 9.2280265 12 12.956591 12 17.3125 C 12 18.844333 12.793052 20.177315 14 21.03125 C 12.799153 21.947549 12 23.385357 12 25 C 12 26.630114 12.810784 28.08518 14.03125 29 C 12.810784 29.91482 12 31.369886 12 33 C 12 34.630114 12.810784 36.08518 14.03125 37 C 12.810784 37.91482 12 39.369886 12 41 L 12 45 C 12 47.745455 14.254545 50 17 50 L 33 50 C 35.745455 50 38 47.745455 38 45 L 38 41 C 38 39.369886 37.189216 37.91482 35.96875 37 C 37.189216 36.08518 38 34.630114 38 33 C 38 31.369886 37.189216 29.91482 35.96875 29 C 37.189216 28.08518 38 26.630114 38 25 C 38 23.385357 37.200847 21.947549 36 21.03125 C 37.189426 20.189019 38 18.870834 38 17.3125 C 38 12.956591 35.069463 9.2280265 31 7.71875 L 31 3 C 31 1.3545455 29.645455 0 28 0 L 22 0 z M 22 2 L 28 2 C 28.554545 2 29 2.4454545 29 3 L 29 7 L 27 7 L 23 7 L 21 7 L 21 3 C 21 2.4454545 21.445455 2 22 2 z M 23 9 L 27 9 C 31.990909 9 36 12.800735 36 17.3125 C 36 18.841071 34.715152 20 33 20 A 1.0001 1.0001 0 0 0 32.90625 20 A 1.001098 1.001098 0 0 0 32.09375 20.5 A 1.0001 1.0001 0 0 0 32.09375 20.53125 A 1.001098 1.001098 0 0 0 32 21.28125 A 1.0001 1.0001 0 0 0 32.03125 21.3125 A 1.001098 1.001098 0 0 0 32.03125 21.375 A 1.0001 1.0001 0 0 0 32.0625 21.40625 A 1.001098 1.001098 0 0 0 32.1875 21.625 A 1.0001 1.0001 0 0 0 32.21875 21.65625 A 1.001098 1.001098 0 0 0 32.46875 21.875 A 1.0001 1.0001 0 0 0 32.53125 21.90625 A 1.001098 1.001098 0 0 0 32.5625 21.9375 A 1.0001 1.0001 0 0 0 32.625 21.9375 A 1.001098 1.001098 0 0 0 32.65625 21.96875 A 1.0001 1.0001 0 0 0 32.71875 21.96875 A 1.001098 1.001098 0 0 0 32.75 21.96875 A 1.0001 1.0001 0 0 0 32.9375 22 A 1.001098 1.001098 0 0 0 32.96875 22 A 1.0001 1.0001 0 0 0 33 22 C 34.654545 22 36 23.345455 36 25 C 36 26.654545 34.654545 28 33 28 A 1.0001 1.0001 0 0 0 32.90625 28 A 1.001098 1.001098 0 0 0 32.09375 28.5 A 1.0001 1.0001 0 0 0 32.09375 28.53125 A 1.001098 1.001098 0 0 0 32 29.28125 A 1.0001 1.0001 0 0 0 32.03125 29.3125 A 1.001098 1.001098 0 0 0 32.03125 29.375 A 1.0001 1.0001 0 0 0 32.0625 29.40625 A 1.001098 1.001098 0 0 0 32.1875 29.625 A 1.0001 1.0001 0 0 0 32.21875 29.65625 A 1.001098 1.001098 0 0 0 32.46875 29.875 A 1.0001 1.0001 0 0 0 32.53125 29.90625 A 1.001098 1.001098 0 0 0 32.5625 29.9375 A 1.0001 1.0001 0 0 0 32.625 29.9375 A 1.001098 1.001098 0 0 0 32.65625 29.96875 A 1.0001 1.0001 0 0 0 32.71875 29.96875 A 1.001098 1.001098 0 0 0 32.75 29.96875 A 1.0001 1.0001 0 0 0 32.9375 30 A 1.001098 1.001098 0 0 0 32.96875 30 A 1.0001 1.0001 0 0 0 33 30 C 34.654545 30 36 31.345455 36 33 C 36 34.654545 34.654545 36 33 36 A 1.0001 1.0001 0 0 0 32.53125 36.125 A 1.0001 1.0001 0 0 0 32.28125 36.28125 A 1.0001 1.0001 0 0 0 32.21875 36.375 A 1.0001 1.0001 0 0 0 32.15625 36.4375 A 1.0001 1.0001 0 0 0 32 36.90625 A 1.0001 1.0001 0 0 0 32 37 A 1.0001 1.0001 0 0 0 32.125 37.5 A 1.0001 1.0001 0 0 0 32.15625 37.5625 A 1.0001 1.0001 0 0 0 32.21875 37.65625 A 1.0001 1.0001 0 0 0 32.46875 37.84375 A 1.0001 1.0001 0 0 0 32.53125 37.90625 A 1.0001 1.0001 0 0 0 32.84375 38 A 1.0001 1.0001 0 0 0 33 38 C 34.654545 38 36 39.345455 36 41 L 36 45 C 36 46.654545 34.654545 48 33 48 L 17 48 C 15.345455 48 14 46.654545 14 45 L 14 41 C 14 39.345455 15.345455 38 17 38 A 1.0001 1.0001 0 0 0 17.28125 37.96875 A 1.0001 1.0001 0 0 0 17.375 37.9375 A 1.0001 1.0001 0 0 0 18 37 A 1.0001 1.0001 0 0 0 18 36.875 A 1.0001 1.0001 0 0 0 17.46875 36.09375 A 1.0001 1.0001 0 0 0 17.375 36.0625 A 1.0001 1.0001 0 0 0 17.28125 36.03125 A 1.0001 1.0001 0 0 0 17.15625 36 A 1.0001 1.0001 0 0 0 17 36 C 15.345455 36 14 34.654545 14 33 C 14 31.345455 15.345455 30 17 30 A 1.0001 1.0001 0 0 0 17.28125 29.96875 A 1.0001 1.0001 0 0 0 17.375 29.9375 A 1.0001 1.0001 0 0 0 18 29 A 1.0001 1.0001 0 0 0 18 28.875 A 1.0001 1.0001 0 0 0 17 28 C 15.345455 28 14 26.654545 14 25 C 14 23.345455 15.345455 22 17 22 A 1.0001 1.0001 0 0 0 17.28125 21.96875 A 1.0001 1.0001 0 0 0 17.375 21.9375 A 1.0001 1.0001 0 0 0 17.78125 21.625 A 1.0001 1.0001 0 0 0 17.84375 21.5625 A 1.0001 1.0001 0 0 0 18 21.1875 A 1.0001 1.0001 0 0 0 18 21.09375 A 1.0001 1.0001 0 0 0 17 20 C 15.315152 20 14 18.7125 14 17.3125 C 14 12.800735 18.009091 9 23 9 z" color="#000" overflow="visible" enable-background="accumulate" font-family="Bitstream Vera Sans"/>
</svg>