<svg xmlns="http://www.w3.org/2000/svg" viewBox="0 0 50 50" width="50" height="50">
    <path style="text-indent:0;text-align:start;line-height:normal;text-transform:none;block-progression:tb;-inkscape-font-specification:Bitstream Vera Sans" d="M 25 10 C 19.389226 10 13.758363 12.03162 9.46875 14.5625 C 7.3239433 15.82794 5.4978866 17.214557 4.1875 18.59375 C 3.3483486 19.476964 2.6797273 20.354671 2.3125 21.25 C 1.9633455 21.421211 1.5824416 21.648987 1.15625 22.0625 C 0.57791069 22.623635 0 23.505559 0 24.625 C 0 26.247358 0.73433583 27.421742 1.40625 28.5 C 2.3416791 30.002754 5.1102531 34.291612 6.4375 36.375 C 7.0569992 37.347963 7.9739518 38.074236 9.0625 38.4375 C 11.690381 39.31346 17.660224 41 25 41 C 32.345926 41 38.313472 39.311149 40.9375 38.4375 C 42.022934 38.074445 42.942835 37.375726 43.5625 36.40625 C 44.891648 34.327891 47.611301 30.070553 48.5 28.4375 C 49.031392 27.460598 50 26.344465 50 24.625 C 50 23.505559 49.422089 22.623635 48.84375 22.0625 C 48.417559 21.648987 48.036655 21.421211 47.6875 21.25 C 47.320273 20.354671 46.651652 19.476964 45.8125 18.59375 C 44.502113 17.214557 42.676057 15.82794 40.53125 14.5625 C 36.241637 12.03162 30.610774 10 25 10 z M 25 12 C 30.123226 12 35.504363 13.90538 39.53125 16.28125 C 41.544693 17.469185 43.206324 18.771599 44.34375 19.96875 C 45.481176 21.165901 46 22.277643 46 22.78125 C 46 23.795447 45.703048 24.588025 45.03125 25.1875 C 44.359452 25.786975 43.214837 26.233868 41.375 26.21875 C 40.411476 26.21075 39.248043 26.01483 37.875 25.5625 L 37.25 25.375 L 36.84375 25.84375 C 35.639853 27.175825 33.22781 28.029588 30.625 28 C 28.841845 27.979375 27.06958 27.638243 25.53125 26.6875 L 25 26.375 L 24.46875 26.6875 C 22.93042 27.638243 21.158155 27.979375 19.375 28 C 16.77219 28.029588 14.360147 27.175825 13.15625 25.84375 L 12.75 25.375 L 12.125 25.5625 C 10.751957 26.01483 9.5885245 26.210765 8.625 26.21875 C 6.7851627 26.233868 5.6405479 25.786975 4.96875 25.1875 C 4.2969521 24.588025 4 23.795447 4 22.78125 C 4 22.277643 4.5188241 21.165901 5.65625 19.96875 C 6.7936759 18.771599 8.4553067 17.469185 10.46875 16.28125 C 14.495637 13.90538 19.876774 12 25 12 z M 31.40625 15.5625 A 1.0001 1.0001 0 0 0 31.21875 15.59375 A 1.0001 1.0001 0 0 0 30.78125 17.375 L 32.625 18.875 A 1.0001 1.0001 0 1 0 33.875 17.34375 L 32.0625 15.8125 A 1.0001 1.0001 0 0 0 31.40625 15.5625 z M 18.375 15.59375 A 1.0001 1.0001 0 0 0 17.9375 15.8125 L 16.125 17.34375 A 1.0001 1.0001 0 1 0 17.375 18.875 L 19.21875 17.375 A 1.0001 1.0001 0 0 0 18.46875 15.59375 A 1.0001 1.0001 0 0 0 18.375 15.59375 z M 24.90625 17.34375 A 1.0001 1.0001 0 0 0 24 18.375 L 24 20.875 A 1.0001 1.0001 0 1 0 26 20.875 L 26 18.375 A 1.0001 1.0001 0 0 0 25 17.34375 A 1.0001 1.0001 0 0 0 24.90625 17.34375 z M 2.125 24.0625 C 2.3474155 25.054013 2.8556096 25.973054 3.65625 26.6875 C 4.7934521 27.702275 6.4488373 28.236632 8.625 28.21875 C 9.6602607 28.21015 10.882978 27.929497 12.15625 27.5625 C 13.942075 29.220586 16.606544 30.031826 19.40625 30 C 21.250048 29.97867 23.193113 29.562403 25 28.59375 C 26.806887 29.562403 28.749952 29.978673 30.59375 30 C 33.393456 30.03183 36.057925 29.220586 37.84375 27.5625 C 39.117022 27.929497 40.339739 28.21017 41.375 28.21875 C 43.551163 28.23663 45.206548 27.702275 46.34375 26.6875 C 47.14439 25.973054 47.652585 25.054013 47.875 24.0625 C 47.950549 24.231344 48 24.416749 48 24.625 C 48 25.555535 47.406608 26.261652 46.75 27.46875 C 45.988699 28.867697 43.231102 33.240859 41.90625 35.3125 C 41.533915 35.895024 40.973066 36.341555 40.3125 36.5625 C 37.824528 37.390851 32.040074 39 25 39 C 17.965776 39 12.177619 37.39254 9.6875 36.5625 C 9.0260482 36.341764 8.4975008 35.897537 8.125 35.3125 C 6.7982469 33.229888 4.0395709 28.906746 3.125 27.4375 C 2.4509142 26.355758 2 25.652642 2 24.625 C 2 24.416749 2.0494514 24.231344 2.125 24.0625 z" color="#000" overflow="visible" font-family="Bitstream Vera Sans"/>
</svg>