<svg xmlns="http://www.w3.org/2000/svg" width="50" height="50" viewBox="0 0 50 50">
    <path style="text-indent:0;text-align:start;line-height:normal;text-transform:none;block-progression:tb;-inkscape-font-specification:Bitstream Vera Sans" d="M 14.15625 1.9375 A 1.0001 1.0001 0 0 0 13.9375 3.875 C 13.9375 3.875 17.720448 5.5361444 22.25 10.28125 C 24.098943 12.218376 25.024026 13.708308 25.3125 14.6875 C 25.600974 15.666692 25.420151 16.057927 24.96875 16.5 C 24.89751 16.57124 24.92936 16.53813 24.90625 16.5625 C 24.88314 16.58687 24.84052 16.62643 24.78125 16.6875 C 24.662711 16.809645 24.467942 17.032058 24.125 17.375 C 24.001487 17.498513 23.876216 17.641498 23.78125 17.78125 L 3 38.53125 C 1.9255512 39.604142 1.9284984 41.362888 3 42.4375 L 6.75 46.1875 C 7.8241339 47.260075 9.5821161 47.260075 10.65625 46.1875 L 32.21875 24.65625 L 32.34375 24.53125 A 1.0054782 1.0054782 0 0 0 32.46875 24.375 L 33.5 23.34375 A 1.0001 1.0001 0 0 0 33.625 23.5 L 33.6875 23.5 A 1.0001 1.0001 0 0 0 33.71875 23.53125 L 34.90625 24.75 C 35.048473 24.89204 35.164661 25.216026 35.1875 25.59375 C 35.21034 25.971474 35.09315 26.407448 35.09375 26.40625 C 34.954932 26.684733 34.849787 26.99716 34.84375 27.34375 C 34.83775 27.69034 34.945143 28.101393 35.28125 28.4375 L 38.75 31.90625 C 39.823171 32.979421 41.580954 33.009684 42.65625 31.9375 L 42.65625 31.90625 L 48.1875 26.40625 C 49.260075 25.332116 49.260075 23.542884 48.1875 22.46875 L 44.71875 19 C 44.202789 18.484039 43.39935 18.419433 42.8125 18.71875 C 42.8048 18.72265 42.311219 18.854388 41.90625 18.84375 C 41.501281 18.83311 41.186207 18.717616 41.0625 18.59375 C 40.047632 17.57799 39.643702 17.174789 39.53125 17.0625 C 39.84706 16.598804 40.127359 16.100557 40.125 15.5625 C 40.1281 14.853583 39.853088 14.134338 39.3125 13.59375 L 35.5625 9.84375 C 35.486493 9.7677428 35.517617 9.7932888 35.5 9.78125 C 35.479471 9.7607214 35.458048 9.7705476 35.4375 9.75 C 33.540276 7.852776 31.576416 5.8566717 31.125 5.40625 C 30.101195 4.3824455 28.574592 3.8073823 26.84375 3.34375 C 25.112908 2.8801177 23.1578 2.5788324 21.3125 2.375 C 17.6219 1.9673352 14.34375 1.9375 14.34375 1.9375 A 1.0001 1.0001 0 0 0 14.15625 1.9375 z M 18.21875 4.15625 C 19.384701 4.213946 19.574695 4.175955 21.09375 4.34375 C 22.87645 4.5406676 24.737342 4.8593198 26.3125 5.28125 C 27.887658 5.7031802 29.151305 6.2763045 29.6875 6.8125 C 30.139195 7.2632001 32.1465 9.2715 34.0625 11.1875 A 1.0001 1.0001 0 0 0 34.125 11.25 C 34.18288 11.300645 34.214192 11.313945 34.21875 11.3125 L 37.90625 15 C 38.059662 15.153412 38.125891 15.359417 38.125 15.5625 C 38.125884 15.764121 38.0584 15.972405 37.90625 16.125 C 37.90625 16.125 37.654884 16.371868 37.53125 16.78125 C 37.451671 17.044755 37.490666 17.428563 37.625 17.78125 C 37.636096 17.810382 37.643542 17.846389 37.65625 17.875 A 1.0001 1.0001 0 0 0 37.75 18.0625 A 1.0001 1.0001 0 0 0 37.84375 18.21875 A 1.0001 1.0001 0 0 0 37.9375 18.3125 A 1.0001 1.0001 0 0 0 38.09375 18.4375 C 38.178102 18.521718 38.582877 18.956961 39.625 20 C 40.283293 20.659134 41.156969 20.824888 41.875 20.84375 C 42.482795 20.85972 42.966571 20.75001 43.4375 20.5625 C 43.846694 20.97156 46.78125 23.90625 46.78125 23.90625 C 47.084675 24.210116 47.084675 24.696134 46.78125 25 L 41.25 30.5 C 40.943296 30.805816 40.461079 30.804829 40.15625 30.5 C 40.15625 30.5 37.35498 27.698439 36.875 27.21875 C 37.118357 26.694855 37.227577 26.131562 37.1875 25.46875 C 37.14534 24.771474 36.945277 23.97571 36.3125 23.34375 L 35.09375 22.125 L 34.9375 21.96875 A 1.0001 1.0001 0 0 0 34.90625 21.9375 C 34.896307 21.927557 34.885174 21.916068 34.875 21.90625 A 1.0001 1.0001 0 0 0 34.46875 21.625 C 34.12278 21.404443 33.738243 21.247753 33.34375 21.28125 C 32.775562 21.3295 32.38371 21.64754 32.09375 21.9375 L 31.03125 23 A 1.0054782 1.0054782 0 0 0 30.9375 23.09375 L 30.78125 23.21875 C 30.563691 23.436309 30.341846 23.602363 30.25 23.625 C 30.15815 23.64764 30.15597 23.71847 29.8125 23.375 C 28.781957 22.344457 25.907371 19.468858 25.5 19.0625 C 25.40659 18.96932 25.40386 18.911893 25.40625 18.9375 C 25.40865 18.96311 25.3343 18.9782 25.53125 18.78125 C 25.570802 18.741698 25.588897 18.754769 25.625 18.71875 A 1.0001 1.0001 0 0 0 25.6875 18.65625 C 25.720955 18.62292 25.719714 18.592639 25.75 18.5625 A 1.0001 1.0001 0 0 0 25.8125 18.46875 C 25.948863 18.33306 26.146045 18.168668 26.21875 18.09375 C 26.28273 18.02782 26.346421 17.967634 26.375 17.9375 C 26.380716 17.931474 26.369545 17.913804 26.375 17.90625 C 26.40737 17.87388 26.41077 17.862861 26.40625 17.875 C 27.273944 16.987208 27.65219 15.596263 27.21875 14.125 C 26.776974 12.625442 25.685807 10.967124 23.71875 8.90625 C 21.659834 6.7493538 19.776035 5.2499585 18.21875 4.15625 z M 23.96875 20.375 C 24.009542 20.421201 24.052787 20.459139 24.09375 20.5 C 24.490379 20.895642 27.343543 23.749793 28.375 24.78125 C 28.525728 24.931978 28.705372 25.045858 28.875 25.15625 L 9.25 44.78125 C 8.9461339 45.084675 8.4601161 45.084675 8.15625 44.78125 L 4.40625 41.03125 C 4.0997516 40.723862 4.1006988 40.242608 4.40625 39.9375 L 23.96875 20.375 z" color="#000" overflow="visible" enable-background="accumulate" font-family="Bitstream Vera Sans"/>
</svg>