<svg xmlns="http://www.w3.org/2000/svg" width="50" height="50" viewBox="0 0 50 50">
    <path style="text-indent:0;text-align:start;line-height:normal;text-transform:none;block-progression:tb;-inkscape-font-specification:Bitstream Vera Sans" d="M 25 0.78125 L 24.0625 3.1875 L 18.625 17.34375 L 3.4375 18.1875 L 0.84375 18.3125 L 2.875 19.9375 L 14.65625 29.53125 L 10.75 44.1875 L 10.09375 46.6875 L 12.25 45.28125 L 25 37.03125 L 37.75 45.28125 L 39.90625 46.6875 L 39.25 44.1875 L 35.34375 29.53125 L 47.125 19.9375 L 49.15625 18.3125 L 46.5625 18.1875 L 31.375 17.34375 L 25.9375 3.1875 L 25 0.78125 z M 25 6.34375 L 29.75 18.6875 L 30 19.28125 L 30.65625 19.3125 L 43.875 20.03125 L 33.59375 28.375 L 33.09375 28.78125 L 33.25 29.40625 L 36.625 42.15625 L 25.53125 35 L 25 34.65625 L 24.46875 35 L 13.375 42.15625 L 16.75 29.40625 L 16.90625 28.78125 L 16.40625 28.375 L 6.125 20.03125 L 19.34375 19.3125 L 20 19.28125 L 20.25 18.6875 L 25 6.34375 z" color="#000" overflow="visible" enable-background="accumulate" font-family="Bitstream Vera Sans"/>
</svg>