<svg xmlns="http://www.w3.org/2000/svg" width="50" height="50" viewBox="0 0 50 50">
    <path d="M 9 0 L 9 1 L 9 14 L 3 14 C 1.3549372 14 0 15.354937 0 17 L 0 38 C 0 39.645063 1.3549372 41 3 41 L 9 41 L 9 49 L 9 50 L 10 50 L 40 50 L 41 50 L 41 49 L 41 41 L 47 41 C 48.645063 41 50 39.645063 50 38 L 50 17 C 50 15.354937 48.645063 14 47 14 L 41 14 L 41 1 L 41 0 L 40 0 L 10 0 L 9 0 z M 11 2 L 39 2 L 39 14 L 11 14 L 11 2 z M 3 16 L 47 16 C 47.562937 16 48 16.437063 48 17 L 48 38 C 48 38.562937 47.562937 39 47 39 L 41 39 L 41 29 L 41 28 L 40 28 L 10 28 L 9 28 L 9 29 L 9 39 L 3 39 C 2.4370628 39 2 38.562937 2 38 L 2 17 C 2 16.437063 2.4370628 16 3 16 z M 43 19 C 41.895431 19 41 19.895431 41 21 C 41 22.104569 41.895431 23 43 23 C 44.104569 23 45 22.104569 45 21 C 45 19.895431 44.104569 19 43 19 z M 11 30 L 39 30 L 39 39.8125 A 1.0001 1.0001 0 0 0 39 39.90625 L 39 40 A 1.0001 1.0001 0 0 0 39 40.21875 L 39 48 L 11 48 L 11 40.1875 A 1.0001 1.0001 0 0 0 11 39.78125 L 11 30 z M 14.8125 34 A 1.001098 1.001098 0 0 0 15 36 L 35 36 A 1.0001 1.0001 0 1 0 35 34 L 15 34 A 1.0001 1.0001 0 0 0 14.90625 34 A 1.001098 1.001098 0 0 0 14.8125 34 z M 14.8125 38 A 1.001098 1.001098 0 0 0 15 40 L 31 40 A 1.0001 1.0001 0 1 0 31 38 L 15 38 A 1.0001 1.0001 0 0 0 14.90625 38 A 1.001098 1.001098 0 0 0 14.8125 38 z M 14.8125 42 A 1.001098 1.001098 0 0 0 15 44 L 35 44 A 1.0001 1.0001 0 1 0 35 42 L 15 42 A 1.0001 1.0001 0 0 0 14.90625 42 A 1.001098 1.001098 0 0 0 14.8125 42 z"/>
</svg>