<svg xmlns="http://www.w3.org/2000/svg" width="50" height="50" viewBox="0 0 50 50">
    <path style="text-indent:0;text-align:start;line-height:normal;text-transform:none;block-progression:tb;-inkscape-font-specification:Bitstream Vera Sans" d="M 8 0 C 5.2504839 0 3 2.2504839 3 5 L 3 45 C 3 47.749516 5.2504839 50 8 50 L 42 50 C 44.749516 50 47 47.749516 47 45 L 47 5 C 47 2.2504839 44.749516 0 42 0 L 8 0 z M 8 2 L 42 2 C 43.668484 2 45 3.3315161 45 5 L 45 45 C 45 46.668484 43.668484 48 42 48 L 8 48 C 6.3315161 48 5 46.668484 5 45 L 5 5 C 5 3.3315161 6.3315161 2 8 2 z M 32 6 C 30.895431 6 30 6.8954305 30 8 C 30 9.1045695 30.895431 10 32 10 C 33.104569 10 34 9.1045695 34 8 C 34 6.8954305 33.104569 6 32 6 z M 39 6 C 37.895431 6 37 6.8954305 37 8 C 37 9.1045695 37.895431 10 39 10 C 40.104569 10 41 9.1045695 41 8 C 41 6.8954305 40.104569 6 39 6 z M 25 13 C 17.280442 13 11 19.280442 11 27 C 11 34.719558 17.280442 41 25 41 C 32.717709 41 39 34.719744 39 27 C 39 19.280256 32.717709 13 25 13 z M 25 15 C 30.95921 15 35.867922 19.342364 36.8125 25.03125 C 34.662829 23.912592 32.788902 24.010216 31.15625 24.5 C 29.206009 25.085059 27.511386 26 25 26 C 22.504781 26 21.015966 25.036572 19.125 24.40625 C 18.179517 24.091089 17.123811 23.922142 15.9375 24.09375 C 15.091206 24.216172 14.184936 24.527606 13.1875 25.0625 C 14.119145 19.358463 19.028206 15 25 15 z M 16.78125 25.96875 C 17.363582 25.975032 17.91255 26.116683 18.5 26.3125 C 20.066534 26.834678 21.990219 28 25 28 C 27.993614 28 30.049741 26.906941 31.71875 26.40625 C 33.387759 25.905559 34.588836 25.765249 36.90625 27.4375 A 1.0063276 1.0063276 0 0 0 36.96875 27.46875 C 36.719196 33.885058 31.476639 39 25 39 C 18.531872 39 13.296682 33.90167 13.03125 27.5 A 1.001098 1.001098 0 0 0 13.0625 27.46875 C 14.726416 26.326772 15.810696 25.958281 16.78125 25.96875 z" color="#000" overflow="visible" enable-background="accumulate" font-family="Bitstream Vera Sans"/>
</svg>