<svg xmlns="http://www.w3.org/2000/svg" width="50" height="50" viewBox="0 0 50 50">
    <path style="text-indent:0;text-align:start;line-height:normal;text-transform:none;block-progression:tb;-inkscape-font-specification:Bitstream Vera Sans" d="M 10 0 C 8.3555411 0 7 1.3544268 7 3 L 7 18.6875 A 1.001098 1.001098 0 0 0 7 19.28125 L 7 44 C 7 45.645063 8.3549372 47 10 47 L 10 48 C 10 49.093063 10.906937 50 12 50 L 15 50 C 16.093063 50 17 49.093063 17 48 L 17 47 L 33 47 L 33 48 C 33 49.093063 33.906937 50 35 50 L 38 50 C 39.093063 50 40 49.093063 40 48 L 40 47 C 41.645063 47 43 45.645063 43 44 L 43 19.1875 A 1.0001 1.0001 0 0 0 43 18.78125 L 43 3 C 43 1.3544268 41.644459 0 40 0 L 10 0 z M 10 2 L 40 2 C 40.563541 2 41 2.4355732 41 3 L 41 18 L 9 18 L 9 3 C 9 2.4355732 9.4364589 2 10 2 z M 13.90625 5.96875 A 1.0001 1.0001 0 0 0 13.78125 6 A 1.0001 1.0001 0 0 0 13 7 L 13 14 A 1.0001 1.0001 0 1 0 15 14 L 15 7 A 1.0001 1.0001 0 0 0 13.90625 5.96875 z M 9 20 L 41 20 L 41 44 C 41 44.562937 40.562937 45 40 45 L 10 45 C 9.4370628 45 9 44.562937 9 44 L 9 20 z M 13.90625 22.96875 A 1.0001 1.0001 0 0 0 13.78125 23 A 1.0001 1.0001 0 0 0 13 24 L 13 31 A 1.0001 1.0001 0 1 0 15 31 L 15 24 A 1.0001 1.0001 0 0 0 13.90625 22.96875 z M 12 47 L 15 47 L 15 48 L 12 48 L 12 47 z M 35 47 L 38 47 L 38 48 L 35 48 L 35 47 z" color="#000" overflow="visible" enable-background="accumulate" font-family="Bitstream Vera Sans"/>
</svg>