<svg xmlns="http://www.w3.org/2000/svg" viewBox="0 0 50 50" enable-background="new 0 0 50 50" width="50" height="50">
    <path style="text-indent:0;text-align:start;line-height:normal;text-transform:none;block-progression:tb;-inkscape-font-specification:Bitstream Vera Sans" d="M 19.8125 2 A 1.0001 1.0001 0 0 0 19 3 L 19 6 L 17 6 A 1.0001 1.0001 0 0 0 16.90625 6 A 1.001098 1.001098 0 0 0 17 8 L 17 14 C 17 16.260986 14.704159 19.292149 12.1875 22.6875 C 9.6708407 26.082851 7 29.931435 7 34.375 C 7 42.912171 13.15625 47.78125 13.15625 47.78125 A 1.0001 1.0001 0 0 0 13.78125 48 L 32.21875 48 A 1.0001 1.0001 0 0 0 32.875 47.78125 C 32.875 47.78125 39 42.728064 39 34.375 C 39 31.713167 38.006471 29.252698 36.65625 26.96875 C 39.689918 26.406891 42 23.72356 42 20.53125 C 42 16.932592 39.069273 14 35.46875 14 C 33.135896 14 31.116531 15.242772 29.96875 17.09375 C 29.377159 15.962169 29 14.920915 29 14 L 29 8 A 1.0001 1.0001 0 1 0 29 6 L 28 6 L 27 6 L 27 3 A 1.0001 1.0001 0 0 0 26 2 L 20 2 A 1.0001 1.0001 0 0 0 19.90625 2 A 1.0001 1.0001 0 0 0 19.8125 2 z M 21 4 L 25 4 L 25 6 L 21 6 L 21 4 z M 19 8 L 27 8 L 27 14 C 27 17.474713 29.701934 20.635538 32.1875 24 C 33.638339 25.963856 35.025979 27.96844 35.9375 30 L 10.03125 30 C 10.942025 27.917174 12.341778 25.890475 13.8125 23.90625 C 16.295841 20.555851 19 17.432014 19 14 L 19 8 z M 35.46875 16 C 37.988227 16 40 18.013908 40 20.53125 C 40 23.048592 37.987268 25.0625 35.46875 25.0625 C 35.456386 25.0625 35.421953 25.06191 35.40625 25.0625 C 34.882102 24.297241 34.34979 23.539776 33.8125 22.8125 C 32.859651 21.522724 31.933672 20.299044 31.15625 19.125 C 31.745069 17.306874 33.445837 16 35.46875 16 z M 9.34375 32 L 36.65625 32 C 36.869146 32.791167 37 33.581719 37 34.375 C 37 41.494905 32.12973 45.702298 31.78125 46 L 14.1875 46 C 13.834732 45.711798 9 41.691281 9 34.375 C 9 33.575265 9.1394674 32.788134 9.34375 32 z" color="#000" overflow="visible" enable-background="accumulate" font-family="Bitstream Vera Sans"/>
</svg>