<svg xmlns="http://www.w3.org/2000/svg" width="52" height="52" viewBox="0 0 26 26">
    <path style="text-indent:0;text-align:start;line-height:normal;text-transform:none;block-progression:tb;-inkscape-font-specification:Bitstream Vera Sans" d="M 19.90625 -0.03125 A 1.0001 1.0001 0 0 0 19.78125 0 A 1.0001 1.0001 0 0 0 19 1 L 19 3.5625 L 17.1875 1.75 A 1.0001 1.0001 0 0 0 16.25 1.46875 A 1.0001 1.0001 0 0 0 15.75 3.1875 L 17.5625 5 L 15 5 A 1.0001 1.0001 0 0 0 14.90625 5 A 1.001098 1.001098 0 0 0 15 7 L 17.5625 7 L 15.75 8.8125 A 1.016466 1.016466 0 1 0 17.1875 10.25 L 19 8.4375 L 19 11 A 1.0001 1.0001 0 1 0 21 11 L 21 8.4375 L 22.8125 10.25 A 1.016466 1.016466 0 1 0 24.25 8.8125 L 22.4375 7 L 25 7 A 1.0001 1.0001 0 1 0 25 5 L 22.4375 5 L 24.25 3.1875 A 1.0001 1.0001 0 0 0 23.3125 1.46875 A 1.0001 1.0001 0 0 0 22.8125 1.75 L 21 3.5625 L 21 1 A 1.0001 1.0001 0 0 0 19.90625 -0.03125 z M 8.3125 4.96875 A 0.51755173 0.51755173 0 0 0 7.96875 5.5 L 7.96875 7.21875 L 6.75 6 A 0.51755173 0.51755173 0 0 0 6.3125 5.84375 A 0.51755173 0.51755173 0 0 0 6.25 5.84375 A 0.51755173 0.51755173 0 0 0 6 6.75 L 7.21875 7.96875 L 5.5 7.96875 A 0.51755173 0.51755173 0 0 0 5.4375 7.96875 A 0.53216832 0.53216832 0 1 0 5.5 9.03125 L 7.21875 9.03125 L 6 10.25 A 0.53033009 0.53033009 0 1 0 6.75 11 L 7.96875 9.78125 L 7.96875 11.5 A 0.53125 0.53125 0 0 0 9.03125 11.5 L 9.03125 9.78125 L 10.25 11 A 0.53033009 0.53033009 0 1 0 11 10.25 L 9.78125 9.03125 L 11.5 9.03125 A 0.53125 0.53125 0 0 0 11.5 7.96875 L 9.78125 7.96875 L 11 6.75 A 0.51755173 0.51755173 0 0 0 10.625 5.84375 A 0.51755173 0.51755173 0 0 0 10.25 6 L 9.03125 7.21875 L 9.03125 5.5 A 0.51755173 0.51755173 0 0 0 8.4375 4.96875 A 0.51755173 0.51755173 0 0 0 8.375 4.96875 A 0.51755173 0.51755173 0 0 0 8.3125 4.96875 z M 3.34375 13 A 0.50005 0.50005 0 0 0 3 13.5 L 3 15.3125 L 1.71875 14.03125 A 0.50005 0.50005 0 0 0 1.28125 13.875 A 0.50005 0.50005 0 0 0 1.03125 14.71875 L 2.3125 16 L 0.5 16 A 0.50005 0.50005 0 0 0 0.40625 16 A 0.50219246 0.50219246 0 1 0 0.5 17 L 2.3125 17 L 1.03125 18.28125 A 0.50005 0.50005 0 1 0 1.71875 18.96875 L 3 17.6875 L 3 19.5 A 0.50005 0.50005 0 1 0 4 19.5 L 4 17.6875 L 5.28125 18.96875 A 0.50005 0.50005 0 1 0 5.96875 18.28125 L 4.6875 17 L 6.5 17 A 0.50005 0.50005 0 1 0 6.5 16 L 4.6875 16 L 5.96875 14.71875 A 0.50005 0.50005 0 0 0 5.5 13.875 A 0.50005 0.50005 0 0 0 5.28125 14.03125 L 4 15.3125 L 4 13.5 A 0.50005 0.50005 0 0 0 3.40625 13 A 0.50005 0.50005 0 0 0 3.34375 13 z M 19.34375 18 A 0.50005 0.50005 0 0 0 19 18.5 L 19 19.28125 L 18.4375 18.71875 A 0.50005 0.50005 0 0 0 17.9375 18.59375 A 0.50005 0.50005 0 0 0 17.71875 19.4375 L 18.28125 20 L 17.5 20 A 0.50005 0.50005 0 0 0 17.40625 20 A 0.50219246 0.50219246 0 1 0 17.5 21 L 18.28125 21 L 17.71875 21.5625 A 0.508233 0.508233 0 0 0 18.4375 22.28125 L 19 21.71875 L 19 22.5 A 0.50005 0.50005 0 1 0 20 22.5 L 20 21.71875 L 20.5625 22.28125 A 0.508233 0.508233 0 0 0 21.28125 21.5625 L 20.71875 21 L 21.5 21 A 0.50005 0.50005 0 1 0 21.5 20 L 20.71875 20 L 21.28125 19.4375 A 0.50005 0.50005 0 0 0 20.875 18.53125 A 0.50005 0.50005 0 0 0 20.75 18.59375 A 0.50005 0.50005 0 0 0 20.5625 18.71875 L 20 19.28125 L 20 18.5 A 0.50005 0.50005 0 0 0 19.40625 18 A 0.50005 0.50005 0 0 0 19.34375 18 z M 10.34375 19 A 0.50005 0.50005 0 0 0 10 19.5 L 10 21.3125 L 8.71875 20.03125 A 0.50005 0.50005 0 0 0 8.28125 19.875 A 0.50005 0.50005 0 0 0 8.21875 19.875 A 0.50005 0.50005 0 0 0 8.03125 20.71875 L 9.3125 22 L 7.5 22 A 0.50005 0.50005 0 0 0 7.40625 22 A 0.50219246 0.50219246 0 1 0 7.5 23 L 9.3125 23 L 8.03125 24.28125 A 0.50005 0.50005 0 1 0 8.71875 24.96875 L 10 23.6875 L 10 25.5 A 0.50005 0.50005 0 1 0 11 25.5 L 11 23.6875 L 12.28125 24.96875 A 0.50005 0.50005 0 1 0 12.96875 24.28125 L 11.6875 23 L 13.5 23 A 0.50005 0.50005 0 1 0 13.5 22 L 11.6875 22 L 12.96875 20.71875 A 0.50005 0.50005 0 0 0 12.5 19.875 A 0.50005 0.50005 0 0 0 12.28125 20.03125 L 11 21.3125 L 11 19.5 A 0.50005 0.50005 0 0 0 10.40625 19 A 0.50005 0.50005 0 0 0 10.34375 19 z"/>
</svg>