<svg xmlns="http://www.w3.org/2000/svg" viewBox="0 0 32 32" width="64" height="64">
    <path style="text-indent:0;text-align:start;line-height:normal;text-transform:none;block-progression:tb;-inkscape-font-specification:Bitstream Vera Sans" d="M 13 6 L 13 8 L 19 8 L 19 6 L 13 6 z M 16 9 C 9.7049592 9 4.5745464 13.838928 4.0625 20 L 3 20 L 2 20 L 2 21 L 2 24 L 2 25 L 3 25 L 29 25 L 30 25 L 30 24 L 30 21 L 30 20 L 29 20 L 27.9375 20 C 27.425454 13.838928 22.295041 9 16 9 z M 16 11 C 21.227201 11 25.443803 14.912775 25.9375 20 L 6.0625 20 C 6.5561968 14.912775 10.772799 11 16 11 z M 4 22 L 28 22 L 28 23 L 4 23 L 4 22 z" color="#000" overflow="visible" font-family="Bitstream Vera Sans"/>
</svg>