<svg xmlns="http://www.w3.org/2000/svg" viewBox="0 0 50 50" width="50" height="50">
    <path style="line-height:normal;text-indent:0;text-align:start;text-decoration-line:none;text-decoration-style:solid;text-decoration-color:#000;text-transform:none;block-progression:tb;isolation:auto;mix-blend-mode:normal" d="M 43.630859 1.9980469 C 43.46261 1.9958852 43.292419 2.0037226 43.119141 2.0234375 C 41.732913 2.1811566 40.260998 2.9150713 38.396484 4.2324219 C 34.667456 6.8671231 29.316769 11.963162 20.734375 20.599609 C 12.160383 29.227602 6.9550239 34.443848 4.2539062 38.121094 C 2.9033474 39.959717 2.1375565 41.438595 2.015625 42.886719 C 1.8936935 44.334842 2.5497227 45.617456 3.5859375 46.660156 C 4.7002862 47.781481 6.2545064 48.220539 7.8496094 47.853516 C 9.4447124 47.486493 11.130401 46.478252 13.173828 44.896484 C 17.260682 41.732949 22.76506 36.181425 30.726562 28.169922 C 38.697102 20.149327 43.457082 15.072005 45.923828 11.46875 C 47.157201 9.6671226 47.846085 8.2184615 47.978516 6.8496094 C 48.110947 5.4807573 47.55493 4.2558669 46.648438 3.34375 C 45.855263 2.5456544 44.808607 2.0131787 43.630859 1.9980469 z M 43.896484 4 C 44.394764 4.0478777 44.762082 4.2806601 45.230469 4.7519531 C 45.854977 5.3803362 46.066382 5.8509302 45.988281 6.6582031 C 45.910181 7.465476 45.41319 8.6730177 44.273438 10.337891 C 41.993932 13.667636 37.261055 18.759314 29.308594 26.761719 C 21.347097 34.773215 15.826068 40.314989 11.951172 43.314453 C 10.013724 44.814185 8.4846314 45.65482 7.4003906 45.904297 C 6.3161499 46.153774 5.7265575 45.977175 5.0039062 45.25 C 4.202621 44.4437 3.9403534 43.879064 4.0097656 43.054688 C 4.0791778 42.230311 4.6148713 41.011518 5.8671875 39.306641 C 8.3718198 35.896886 13.578336 30.637773 22.152344 22.009766 C 30.71795 13.390213 36.083809 8.3167363 39.550781 5.8671875 C 41.284267 4.6424131 42.531056 4.1044058 43.345703 4.0117188 C 43.549365 3.988547 43.730391 3.9840408 43.896484 4 z M 31.974609 15.097656 C 30.974609 16.097656 31.174609 17.647656 32.974609 17.847656 C 34.774609 18.047656 35.974609 17.097656 36.974609 16.097656 L 31.974609 15.097656 z M 22.974609 24.097656 C 21.974609 25.097656 22.174609 26.647656 23.974609 26.847656 C 25.774609 27.047656 26.974609 26.097656 27.974609 25.097656 L 22.974609 24.097656 z M 13.974609 33.097656 C 12.974609 34.097656 13.174609 35.647656 14.974609 35.847656 C 16.774609 36.047656 17.974609 35.097656 18.974609 34.097656 L 13.974609 33.097656 z" color="#000" font-weight="400" font-family="sans-serif" white-space="normal" overflow="visible"/>
</svg>