<svg xmlns="http://www.w3.org/2000/svg" width="50" height="50" viewBox="0 0 50 50">
    <path style="text-indent:0;text-align:start;line-height:normal;text-transform:none;block-progression:tb;-inkscape-font-specification:Bitstream Vera Sans" d="M 40.625 1.03125 C 37.804076 1.062887 34.616448 2.0367485 31.4375 4.03125 C 31.39763 4.03294 31.302494 4.02813 31.0625 4.03125 C 30.762508 4.03515 30.355595 4.03437 29.90625 4.03125 C 29.00756 4.02501 27.901233 4.04604 26.78125 4.21875 C 25.661267 4.3914599 24.501834 4.7221163 23.5625 5.46875 C 22.623166 6.2153837 22 7.427671 22 8.9375 L 22 9.96875 C 21.831352 9.9543248 21.631502 9.84375 21.46875 9.84375 C 19.874637 9.84375 17.617139 9.9597216 15.625 11 C 13.632861 12.040278 12 14.162529 12 17.5625 L 12 18.25 C 11.665297 18.2545 11.318327 18.20419 11 18.28125 C 9.5750488 18.626056 7.8208285 19.225952 6.40625 20.5625 C 4.9916715 21.899048 4 23.985399 4 27 L 4 28.0625 C 3.970316 28.09859 3.934 28.08085 3.90625 28.125 C 2.9804868 29.596638 1.5435169 32.852601 0.96875 36.625 C 0.39398314 40.397399 0.73861572 44.764488 3.875 47.8125 C 5.2248301 49.124399 7.2234772 49.233666 9.28125 48.65625 C 11.339023 48.078834 13.615004 46.835932 16.125 45.125 C 21.144992 41.703136 27.017009 36.418985 32.71875 30.71875 C 38.44052 24.996476 43.070792 19.300318 45.90625 14.59375 C 47.323979 12.240466 48.296798 10.139776 48.71875 8.3125 C 49.140702 6.4852237 48.997894 4.7888398 47.84375 3.6875 C 46.018936 1.9467085 43.502403 0.99897908 40.625 1.03125 z M 40.59375 3.03125 C 43.025097 2.996521 45.057564 3.7787915 46.46875 5.125 C 46.921106 5.5566602 47.09311 6.3891513 46.75 7.875 C 46.40689 9.3608487 45.539521 11.318284 44.1875 13.5625 C 41.483458 18.050932 36.91648 23.645524 31.28125 29.28125 C 25.624991 34.936015 19.820508 40.182864 15 43.46875 C 12.589746 45.111693 10.44654 46.273947 8.75 46.75 C 7.0534603 47.226053 5.9954199 47.069101 5.28125 46.375 C 2.7746343 43.939012 2.4152669 40.365101 2.9375 36.9375 C 3.4220829 33.757011 4.6660325 30.925454 5.40625 29.625 C 5.6567757 29.65709 5.9596631 29.703 6.375 29.78125 C 7.366586 29.968069 8.6933035 30.254145 10.09375 30.5 C 11.494197 30.745855 12.939778 30.949492 14.21875 30.96875 C 15.497722 30.98801 16.700496 30.95703 17.53125 30 C 17.95517 29.51183 17.942963 28.691185 17.6875 28.21875 C 17.432037 27.746315 17.064219 27.411396 16.625 27.09375 C 15.746561 26.458457 14.521919 25.919389 13.125 25.5 C 10.994867 24.860483 8.4516007 24.534857 6.28125 25.25 C 6.5601465 23.808882 7.0474783 22.693296 7.78125 22 C 8.8004215 21.037048 10.182701 20.561194 11.46875 20.25 C 11.912941 20.142478 13.062047 20.26533 14.4375 20.625 C 15.812953 20.984675 17.436093 21.508799 19.03125 22 C 20.626407 22.491201 22.188283 22.938887 23.59375 23.09375 C 24.296484 23.17118 24.960429 23.1678 25.59375 23.03125 C 26.227071 22.894703 26.885479 22.586398 27.3125 22.03125 C 27.752383 21.459451 27.771936 20.657693 27.53125 20.0625 C 27.290564 19.467307 26.887984 18.986042 26.375 18.53125 C 25.349032 17.621665 23.875442 16.806236 22.21875 16.1875 C 20.562058 15.568764 18.721589 15.14532 16.96875 15.15625 C 16.113183 15.16155 15.255122 15.304527 14.46875 15.5625 C 14.886016 14.250448 15.530148 13.272767 16.53125 12.75 C 17.997611 11.984278 19.982863 11.84375 21.46875 11.84375 C 22.530287 11.84375 25.228418 12.8972 27.8125 13.71875 C 29.104541 14.129525 30.401711 14.479861 31.625 14.5625 C 32.848289 14.64514 34.112414 14.426942 35 13.53125 C 35.441339 13.086003 35.606105 12.26932 35.375 11.71875 C 35.143895 11.16818 34.729278 10.826551 34.28125 10.5 C 33.385193 9.8468973 32.147659 9.3078507 30.75 8.84375 C 29.352341 8.3796493 27.826047 7.9931057 26.40625 7.8125 C 25.645018 7.7156672 24.918281 7.6892997 24.25 7.71875 C 24.39045 7.4393773 24.565063 7.2279265 24.8125 7.03125 C 25.331885 6.618415 26.165358 6.3306651 27.09375 6.1875 C 28.022142 6.0443349 29.035971 6.025208 29.90625 6.03125 C 30.341389 6.03427 30.742059 6.03582 31.09375 6.03125 C 31.445441 6.02668 31.6939 6.041456 32.0625 5.9375 L 32.21875 5.90625 L 32.34375 5.8125 C 35.325584 3.9026894 38.162403 3.0659791 40.59375 3.03125 z M 24.4375 9.71875 C 24.928846 9.7033057 25.525305 9.7322403 26.15625 9.8125 C 27.418141 9.9730193 28.848409 10.294851 30.125 10.71875 C 31.401591 11.142649 32.541869 11.699978 33.125 12.125 C 33.19486 12.17592 33.1676 12.17254 33.21875 12.21875 C 32.882006 12.427123 32.499421 12.613127 31.75 12.5625 C 30.823633 12.49992 29.666084 12.2031 28.4375 11.8125 C 26.443253 11.178475 24.487228 10.407242 22.71875 10.09375 L 23.34375 9.875 C 23.559919 9.7940176 23.946154 9.7341943 24.4375 9.71875 z M 16.96875 17.15625 C 18.388255 17.14735 20.028317 17.512861 21.5 18.0625 C 22.971683 18.612139 24.288625 19.372866 25.03125 20.03125 C 25.402563 20.360442 25.630549 20.671666 25.6875 20.8125 C 25.60346 20.914891 25.488485 21.028856 25.1875 21.09375 C 24.87202 21.16177 24.38247 21.15655 23.8125 21.09375 C 22.672561 20.968144 21.185968 20.574424 19.625 20.09375 C 18.064032 19.613076 16.446953 19.074044 14.96875 18.6875 C 14.483019 18.560483 14.043428 18.463155 13.59375 18.375 L 13.71875 18.25 C 14.416157 17.517365 15.549245 17.165101 16.96875 17.15625 z M 8.71875 26.875 C 9.9609881 26.83695 11.338044 27.038639 12.5625 27.40625 C 13.786956 27.773861 14.87147 28.286793 15.46875 28.71875 C 15.50989 28.74851 15.49522 28.75227 15.53125 28.78125 C 15.269639 28.86751 15.024515 28.980412 14.25 28.96875 C 13.171316 28.95251 11.791178 28.768895 10.4375 28.53125 C 9.0838215 28.293605 7.7520702 28.007181 6.71875 27.8125 C 6.3622545 27.745335 6.0981954 27.728611 5.8125 27.6875 C 6.554308 27.176706 7.5619582 26.910437 8.71875 26.875 z" color="#000" overflow="visible" enable-background="accumulate" font-family="Bitstream Vera Sans"/>
</svg>