<svg xmlns="http://www.w3.org/2000/svg" width="50" height="50" viewBox="0 0 50 50">
    <path style="text-indent:0;text-align:start;line-height:normal;text-transform:none;block-progression:tb;-inkscape-font-specification:Bitstream Vera Sans" d="M 7.8125 4 C 6.2772686 4 5 5.2772686 5 6.8125 L 5 12.1875 C 5 12.898868 5.3029361 13.53206 5.75 14.03125 L 2.15625 19.4375 A 1.0001 1.0001 0 0 0 2.5 20.875 C 2.5 20.875 3.4405157 21.387407 5 21.875 L 5 43 C 5 46.301625 7.6983746 49 11 49 L 39 49 C 42.301625 49 45 46.301625 45 43 L 45 21.78125 C 46.440042 21.340798 47.40625 20.90625 47.40625 20.90625 A 1.0001 1.0001 0 0 0 47.78125 19.375 L 43.71875 14.5 C 44.480033 13.992823 45 13.156426 45 12.1875 L 45 6.8125 C 45 5.2772686 43.722731 4 42.1875 4 L 7.8125 4 z M 7.8125 6 L 42.1875 6 C 42.634269 6 43 6.3657314 43 6.8125 L 43 12.1875 C 43 12.634269 42.634269 13 42.1875 13 L 7.8125 13 C 7.3657314 13 7 12.634269 7 12.1875 L 7 6.8125 C 7 6.3657314 7.3657314 6 7.8125 6 z M 7.5625 14.96875 C 7.6461478 14.976483 7.7270794 15 7.8125 15 L 41.53125 15 L 45.25 19.46875 C 43.417024 20.149363 37.201467 22.248895 32.5625 19.15625 A 1.0001 1.0001 0 0 0 31.59375 19.09375 C 26.88771 21.257514 23.223618 21.990421 18.5 19.15625 A 1.0001 1.0001 0 0 0 17.5625 19.09375 C 13.270824 21.239588 9.3680693 20.976981 6.78125 20.34375 A 1.0001 1.0001 0 0 0 5.78125 20 A 1.0001 1.0001 0 0 0 5.71875 20.03125 C 5.2478377 19.8792 4.8235026 19.730801 4.5 19.59375 L 7.5625 14.96875 z M 18 21.0625 C 19.782915 22.051824 21.498566 22.588555 23.1875 22.78125 L 22.46875 24 L 17 24 A 1.0001 1.0001 0 0 0 16.90625 24 A 1.0001 1.0001 0 0 0 16.15625 24.5 L 13.15625 29.5 A 1.0001 1.0001 0 0 0 13.15625 30.5 L 16.15625 35.5 A 1.0001 1.0001 0 0 0 17 36 L 22.46875 36 L 25.15625 40.5 A 1.0001 1.0001 0 0 0 26 41 L 32 41 A 1.0001 1.0001 0 0 0 32.84375 40.5 L 35.84375 35.5 A 1.0001 1.0001 0 0 0 35.84375 34.5 L 33.15625 30 L 35.84375 25.5 A 1.0001 1.0001 0 0 0 35.5 23.90625 L 35.4375 23.8125 C 33.4365 23.8125 32.4375 22.84375 32.4375 22.84375 L 33.84375 25.03125 L 31.46875 29 L 26.53125 29 L 25.34375 27 L 24.15625 25 L 25.46875 22.84375 C 27.633081 22.708762 29.761046 22.0554 31.9375 21.09375 C 35.554238 23.23751 39.853147 22.987547 43 22.3125 L 43 43 C 43 45.220375 41.220375 47 39 47 L 11 47 C 8.7796254 47 7 45.220375 7 43 L 7 22.375 C 9.8555732 22.932642 13.789673 23.029861 18 21.0625 z M 17.53125 26 L 22.46875 26 L 24.84375 30 L 22.46875 34 L 17.53125 34 L 15.15625 30 L 17.53125 26 z M 26.53125 31 L 31.46875 31 L 33.84375 35 L 31.46875 39 L 26.53125 39 L 24.15625 35 L 26.53125 31 z" color="#000" overflow="visible" enable-background="accumulate" font-family="Bitstream Vera Sans"/>
</svg>