<svg xmlns="http://www.w3.org/2000/svg" viewBox="0 0 50 50" width="50" height="50">
    <path style="text-indent:0;text-align:start;line-height:normal;text-transform:none;block-progression:tb;-inkscape-font-specification:Sans" d="M 31 6 C 22.486873 6 13.4375 12.15625 13.4375 12.15625 A 1.0001 1.0001 0 0 0 13.1875 13.59375 L 15.59375 16.8125 C 13.534442 17.927102 11.775238 19.060083 10.40625 20 C 9.1938766 19.936996 7.9616164 18.964336 6.53125 17.75 C 5.0517864 16.493982 3.3385965 15 1 15 A 1.0001 1.0001 0 0 0 0.90625 15 A 1.0001 1.0001 0 0 0 0 16 C 0 20.772601 1.6042144 24.327316 1.90625 24.96875 C 1.5188096 25.625003 0 28.376005 0 33 A 1.0001 1.0001 0 0 0 1 34 C 3.8043607 34 5.6278717 32.514514 6.9375 31.21875 C 7.5923142 30.570868 8.1555896 29.955534 8.65625 29.5625 C 9.1569104 29.169466 9.5415315 29 10 29 A 1.0001 1.0001 0 0 0 10.09375 29 C 11.796575 30.302105 14.17187 32.002906 17 33.5625 L 13.28125 37.28125 A 1.0001 1.0001 0 0 0 13.625 38.9375 L 18.625 40.9375 A 1.0001 1.0001 0 0 0 19.5625 40.84375 L 25.3125 37 C 27.480827 37.602833 29.730539 38 32 38 C 34.972065 38 37.825714 37.078223 40.34375 35.71875 A 1.0064489 1.0064489 0 0 0 40.4375 35.65625 C 40.478413 35.6339 40.521766 35.616324 40.5625 35.59375 A 1.0064489 1.0064489 0 0 0 40.625 35.53125 C 42.021503 34.750543 43.322916 33.859283 44.46875 32.90625 C 46.104172 31.546008 47.442833 30.103317 48.40625 28.75 C 49.369667 27.396683 50 26.210765 50 25 C 50 23.789235 49.369667 22.603317 48.40625 21.25 C 47.442833 19.896683 46.104172 18.453992 44.46875 17.09375 C 43.399824 16.204685 42.195482 15.369184 40.90625 14.625 A 1.0001 1.0001 0 0 0 40.875 14.59375 C 40.862626 14.586637 40.856142 14.569593 40.84375 14.5625 A 1.0001 1.0001 0 0 0 40.25 14.21875 C 38.794955 13.442284 37.22709 12.828428 35.59375 12.4375 L 31.84375 6.46875 A 1.0001 1.0001 0 0 0 31 6 z M 30.5 8.09375 L 33 12.03125 C 32.665462 12.007996 32.338006 12 32 12 C 26.775936 12 21.636557 13.796602 17.40625 15.875 L 15.5 13.34375 C 16.806426 12.523211 23.747368 8.3159495 30.5 8.09375 z M 32 14 C 32.860622 14 33.711536 14.109426 34.5625 14.28125 A 1.0001 1.0001 0 0 0 35.125 14.40625 C 36.064985 14.634871 37.009852 14.953778 37.90625 15.34375 C 34.938282 17.526922 33 21.037873 33 25 C 33 28.962127 34.938282 32.473078 37.90625 34.65625 C 36.022968 35.47556 34.008821 36 32 36 C 22.756591 36 12.993403 28.823012 9.78125 26.1875 C 9.2987029 25.779929 9 25.200096 9 24.5625 C 9 23.881685 9.3031163 23.244144 9.84375 22.84375 C 13.167349 20.379939 22.820606 14 32 14 z M 39.96875 16.40625 C 41.126478 17.075147 42.215094 17.816214 43.1875 18.625 C 44.697453 19.880883 45.937949 21.22166 46.78125 22.40625 C 47.624551 23.59084 48 24.675265 48 25 C 48 25.324735 47.624551 26.40916 46.78125 27.59375 C 45.937949 28.77834 44.697453 30.119117 43.1875 31.375 C 42.215094 32.183786 41.126478 32.924853 39.96875 33.59375 C 37.013117 31.857755 35 28.682353 35 25 C 35 21.317647 37.013117 18.142245 39.96875 16.40625 z M 2.125 17.34375 C 3.157506 17.699151 4.1722262 18.335004 5.25 19.25 C 6.1829855 20.042075 7.1772397 20.951863 8.34375 21.5 C 7.4907022 22.284383 7 23.397729 7 24.5625 C 7 25.67373 7.4339108 26.726327 8.21875 27.5 C 7.9344425 27.652452 7.6475311 27.810586 7.40625 28 C 6.7126916 28.544466 6.1398108 29.179132 5.53125 29.78125 C 4.5749401 30.727436 3.5164797 31.408973 2.125 31.71875 C 2.4283747 27.877891 3.84375 25.5625 3.84375 25.5625 A 1.0001 1.0001 0 0 0 3.90625 24.5625 C 3.90625 24.5625 2.4357732 21.375463 2.125 17.34375 z M 41 23 C 39.895431 23 39 23.895431 39 25 C 39 26.104569 39.895431 27 41 27 C 42.104569 27 43 26.104569 43 25 C 43 23.895431 42.104569 23 41 23 z M 18.875 34.53125 C 20.12806 35.150569 21.446162 35.718211 22.8125 36.21875 L 18.875 38.875 L 15.8125 37.625 L 18.71875 34.71875 A 1.0001 1.0001 0 0 0 18.875 34.53125 z" color="#000" overflow="visible" font-family="Sans"/>
</svg>