<svg xmlns="http://www.w3.org/2000/svg" viewBox="0 0 50 50" enable-background="new 0 0 50 50" width="50" height="50">
    <path style="text-indent:0;text-align:start;line-height:normal;text-transform:none;block-progression:tb;-inkscape-font-specification:Bitstream Vera Sans" d="M 25.15625 -0.03125 C 24.852988 -0.034014193 24.577806 -0.021511306 24.3125 0 A 1.0001 1.0001 0 0 0 24.28125 0 C 22.592143 0.19121961 21.150764 1.2612145 19.875 2.71875 C 18.599236 4.1762855 17.449902 6.0673701 16.4375 8.15625 C 14.412696 12.33401 12.896332 17.29685 12.03125 21.0625 C 10.793462 26.299297 8.0050421 28.7892 5.3125 31.40625 C 2.6199579 34.0233 0 36.874167 0 42.1875 C 0 44.073522 1.0070495 45.660672 2.46875 46.78125 C 3.9304505 47.901828 5.8364677 48.678882 7.96875 49.1875 C 12.233315 50.204736 17.369455 50.197031 21.375 49.46875 L 21.375 49.5 C 31.169134 47.80782 41.403165 42.359886 46.625 35.59375 C 49.235917 32.210682 50.601624 28.413256 49.75 24.625 C 48.920119 20.933459 45.989871 17.451755 40.65625 14.46875 C 39.351279 8.4682613 36.366707 4.6941391 33.15625 2.5625 C 30.27358 0.64850026 27.279082 -0.011900652 25.15625 -0.03125 z M 25.15625 1.96875 C 26.84629 1.9967538 29.522558 2.5530595 32.03125 4.21875 C 34.91177 6.1313217 37.658106 9.4611796 38.8125 15.28125 A 1.0001 1.0001 0 0 0 39.3125 15.96875 C 44.607388 18.834791 47.123499 21.997631 47.8125 25.0625 C 48.501501 28.127369 47.407833 31.295568 45.03125 34.375 C 40.278085 40.533864 30.337116 45.89218 21.03125 47.5 A 1.0001 1.0001 0 0 0 21.03125 47.53125 C 17.336795 48.202969 12.347935 48.151514 8.4375 47.21875 C 6.4822823 46.752368 4.8101745 46.079422 3.6875 45.21875 C 2.5648255 44.358078 2 43.401478 2 42.1875 C 2 37.500833 4.0612921 35.4267 6.71875 32.84375 C 9.3762079 30.2608 12.606538 27.294453 13.96875 21.53125 C 14.803668 17.8969 16.324804 13.00349 18.25 9.03125 C 19.212598 7.0451299 20.282014 5.2799645 21.375 4.03125 C 22.458143 2.7937809 23.514317 2.118206 24.46875 2 C 24.47615 1.9994031 24.49257 2.0005716 24.5 2 C 24.698032 1.9847614 24.914816 1.9647495 25.15625 1.96875 z M 25.125 4.96875 C 24.865462 4.9698066 24.635188 4.9778447 24.40625 5 C 22.889254 5.1379088 21.731449 6.1875654 20.84375 7.53125 C 19.956051 8.8749346 19.246325 10.602318 18.65625 12.46875 C 17.476101 16.201614 16.720875 20.557704 16.03125 23.5625 C 14.995813 27.892508 12.296101 31.199889 9.78125 33.875 C 8.5238244 35.212556 7.2970888 36.397142 6.375 37.5 C 5.4604801 38.593805 4.7476473 39.650852 4.8125 40.9375 C 4.8131782 40.9531 4.842669 40.95329 4.84375 40.96875 C 4.887035 41.587591 5.2136034 42.121071 5.625 42.46875 C 6.0466747 42.825115 6.5430079 43.08798 7.125 43.3125 C 8.2889842 43.761541 9.7843718 44.04994 11.46875 44.25 C 14.837506 44.65012 18.940928 44.59506 22.28125 43.96875 L 22.28125 44 C 30.438813 42.614753 38.621667 38.658021 42.8125 33.5625 C 44.907917 31.014739 46.013978 28.05495 45.3125 25.09375 C 44.633698 22.228273 42.286466 19.560773 38.15625 17.1875 C 37.100328 12.135436 34.608249 8.9219606 31.90625 7.125 C 29.468421 5.5037258 26.941766 4.9613538 25.125 4.96875 z M 25.125 6.96875 C 26.496174 6.9715319 28.712829 7.4056492 30.78125 8.78125 C 33.14516 10.353365 35.405566 13.099949 36.3125 17.96875 A 1.0001 1.0001 0 0 0 36.8125 18.6875 C 40.917202 20.957159 42.848353 23.339325 43.375 25.5625 C 43.901647 27.785675 43.092083 30.041511 41.25 32.28125 C 37.565833 36.760729 29.679937 40.685247 21.9375 42 A 1.0001 1.0001 0 0 0 21.90625 42.03125 C 18.846572 42.60494 14.874994 42.65613 11.71875 42.28125 C 10.140628 42.09381 8.7453908 41.785334 7.84375 41.4375 C 7.3929296 41.263583 7.0646534 41.07137 6.90625 40.9375 C 6.8397206 40.881275 6.8220198 40.862939 6.8125 40.84375 C 6.811087 40.811252 6.8085097 40.797672 6.8125 40.8125 C 6.8070251 40.454591 7.1400278 39.735061 7.9375 38.78125 C 8.7529112 37.805983 9.9261756 36.624944 11.21875 35.25 C 13.803899 32.500111 16.804187 28.901242 17.96875 24.03125 C 18.679125 20.936046 19.473899 16.604636 20.59375 13.0625 C 21.153675 11.291432 21.787699 9.7344404 22.5 8.65625 C 23.212301 7.5780596 23.910746 7.0620912 24.59375 7 C 24.752312 6.9846553 24.929118 6.9683526 25.125 6.96875 z M 27.3125 11 C 25.724951 10.92933 24.157028 11.873347 23.40625 13.46875 C 22.4028 15.601081 22.995592 18.266105 25 19.46875 A 1.0001 1.0001 0 0 0 25.03125 19.46875 C 27.038069 20.539053 29.498963 19.5647 30.5 17.4375 C 31.50345 15.305169 30.910658 12.640145 28.90625 11.4375 A 1.0001 1.0001 0 0 0 28.875 11.40625 C 28.373295 11.138674 27.841683 11.023556 27.3125 11 z M 27.15625 12.96875 C 27.411228 12.984543 27.662326 13.062398 27.90625 13.1875 C 28.875497 13.800409 29.276762 15.310319 28.6875 16.5625 C 28.088537 17.835296 26.961931 18.248447 25.96875 17.71875 C 24.999503 17.105841 24.629488 15.564681 25.21875 14.3125 C 25.518231 13.676102 25.92412 13.286724 26.40625 13.09375 C 26.642414 12.999225 26.901272 12.952957 27.15625 12.96875 z M 36.90625 23.78125 A 1.0001 1.0001 0 0 0 36.65625 23.875 L 20.9375 29.75 A 1.0040202 1.0040202 0 0 0 21.65625 31.625 L 37.34375 25.75 A 1.0001 1.0001 0 0 0 37 23.78125 A 1.0001 1.0001 0 0 0 36.90625 23.78125 z M 36.90625 29.09375 A 1.0001 1.0001 0 0 0 36.65625 29.15625 L 17.5625 36.25 A 1.0001 1.0001 0 1 0 18.25 38.125 L 37.34375 31.03125 A 1.0001 1.0001 0 0 0 36.90625 29.09375 z" color="#000" overflow="visible" enable-background="accumulate" font-family="Bitstream Vera Sans"/>
</svg>