<svg fill="#000000" xmlns="http://www.w3.org/2000/svg"  viewBox="0 0 50 50" width="50px" height="50px"><path d="M 7 4 C 5.3550302 4 4 5.3550302 4 7 L 4 22 A 1.0001 1.0001 0 0 0 5 23 L 22 23 A 1.0001 1.0001 0 0 0 23 22 L 23 7 C 23 5.3550302 21.64497 4 20 4 L 7 4 z M 30 4 C 28.35503 4 27 5.3550302 27 7 L 27 22 A 1.0001 1.0001 0 0 0 28 23 L 45 23 A 1.0001 1.0001 0 0 0 46 22 L 46 7 C 46 5.3550302 44.64497 4 43 4 L 30 4 z M 7 6 L 20 6 C 20.56503 6 21 6.4349698 21 7 L 21 9 L 6 9 L 6 7 C 6 6.4349698 6.4349698 6 7 6 z M 30 6 L 43 6 C 43.56503 6 44 6.4349698 44 7 L 44 9 L 29 9 L 29 7 C 29 6.4349698 29.43497 6 30 6 z M 6 11 L 21 11 L 21 21 L 6 21 L 6 11 z M 29 11 L 44 11 L 44 21 L 29 21 L 29 11 z M 7 27 C 5.3550302 27 4 28.35503 4 30 L 4 45 A 1.0001 1.0001 0 0 0 5 46 L 22 46 A 1.0001 1.0001 0 0 0 23 45 L 23 30 C 23 28.35503 21.64497 27 20 27 L 7 27 z M 30 27 C 28.35503 27 27 28.35503 27 30 L 27 45 A 1.0001 1.0001 0 0 0 28 46 L 45 46 A 1.0001 1.0001 0 0 0 46 45 L 46 30 C 46 28.35503 44.64497 27 43 27 L 30 27 z M 7 29 L 20 29 C 20.56503 29 21 29.43497 21 30 L 21 32 L 6 32 L 6 30 C 6 29.43497 6.4349698 29 7 29 z M 30 29 L 43 29 C 43.56503 29 44 29.43497 44 30 L 44 32 L 29 32 L 29 30 C 29 29.43497 29.43497 29 30 29 z M 6 34 L 21 34 L 21 44 L 6 44 L 6 34 z M 29 34 L 44 34 L 44 44 L 29 44 L 29 34 z"/></svg>